# Blender 4.2.1 LTS
# www.blender.org
mtllib 2Disc.mtl
o 2Disc
v 2.414814 2.239022 0.647048
v 2.414814 2.239022 -0.647047
v 2.414814 3.014470 0.647048
v 2.414814 3.014470 -0.647047
v 1.484924 3.014470 -1.484924
v 1.237437 3.014470 1.237437
v 2.256056 3.014470 0.452933
v 2.256056 3.014470 -0.452933
v 1.237437 2.714470 1.237437
v 2.256056 2.714470 0.452933
v 2.256056 2.714470 -0.452933
v 3.404764 2.239022 0.000000
v 3.404764 3.014470 0.000000
v 1.128028 2.714470 0.226467
v 1.128028 2.714470 -0.226467
v 0.618719 2.714470 -0.618718
v 1.484924 2.239022 -1.484924
v 0.647048 2.239022 -2.414814
v -0.647047 2.239022 -2.414815
v -1.484924 2.239022 -1.484924
v 0.647048 3.014470 -2.414814
v -0.647047 3.014470 -2.414815
v -1.484924 3.014470 -1.484924
v 1.237437 3.014470 -1.237437
v 0.452934 3.014470 -2.256056
v -0.452933 3.014470 -2.256056
v 1.237437 2.714470 -1.237437
v 0.452934 2.714470 -2.256056
v -0.452933 2.714470 -2.256056
v 0.000000 2.239022 -3.404764
v 0.000000 3.014470 -3.404764
v 0.226467 2.714470 -1.128028
v -0.226466 2.714470 -1.128028
v -0.618718 2.714470 -0.618719
v -2.414814 2.239022 -0.647048
v -2.414814 2.239022 0.647047
v -2.414814 3.014470 -0.647048
v -2.414814 3.014470 0.647047
v -1.237437 3.014470 -1.237437
v -2.256055 3.014470 -0.452934
v -2.256055 3.014470 0.452933
v -1.237437 3.014470 1.237437
v -1.237437 2.714470 -1.237437
v -2.256055 2.714470 -0.452934
v -2.256055 2.714470 0.452933
v -0.000000 3.014470 0.000000
v -3.404764 2.239022 -0.000001
v -3.404764 3.014470 -0.000001
v -1.128028 2.714470 -0.226467
v -1.128028 2.714470 0.226466
v -0.618719 2.714470 0.618718
v -1.484925 2.239022 1.484924
v -0.647048 2.239022 2.414814
v 0.647047 2.239022 2.414815
v 1.484924 2.239022 1.484925
v -1.484925 3.014470 1.484924
v -0.647048 3.014470 2.414814
v 0.647047 3.014470 2.414815
v 1.484924 3.014470 1.484925
v 0.000000 2.239022 0.000000
v -0.452934 3.014470 2.256055
v 0.452933 3.014470 2.256056
v -1.237437 2.714470 1.237437
v -0.452934 2.714470 2.256055
v 0.452933 2.714470 2.256056
v -0.000001 2.239022 3.404764
v -0.000001 3.014470 3.404764
v -0.226467 2.714470 1.128028
v 0.226466 2.714470 1.128028
v 0.618718 2.714470 0.618719
vn 0.6694 -0.0000 -0.7429
vn 0.6694 -0.0000 0.7429
vn 0.5471 -0.0000 0.8371
vn -0.0000 -1.0000 -0.0000
vn -0.0000 1.0000 -0.0000
vn -0.6102 -0.0000 -0.7923
vn -1.0000 -0.0000 -0.0000
vn -0.6102 -0.0000 0.7923
vn 0.1994 0.9451 0.2589
vn 0.2570 0.9664 -0.0000
vn 0.1994 0.9451 -0.2589
vn 0.5471 -0.0000 -0.8371
vn -0.7429 -0.0000 -0.6694
vn 0.7429 -0.0000 -0.6694
vn 0.8371 -0.0000 -0.5471
vn -0.7923 -0.0000 0.6102
vn -0.0000 -0.0000 1.0000
vn 0.7923 -0.0000 0.6102
vn 0.2589 0.9451 -0.1994
vn -0.0000 0.9664 -0.2570
vn -0.2589 0.9451 -0.1994
vn -0.8371 -0.0000 -0.5471
vn -0.6694 -0.0000 0.7429
vn -0.6694 -0.0000 -0.7429
vn -0.5471 -0.0000 -0.8371
vn 0.6102 -0.0000 0.7923
vn 1.0000 -0.0000 -0.0000
vn 0.6102 -0.0000 -0.7923
vn -0.1994 0.9451 -0.2589
vn -0.2570 0.9664 -0.0000
vn -0.1994 0.9451 0.2589
vn -0.5471 -0.0000 0.8371
vn 0.7429 -0.0000 0.6694
vn -0.7429 -0.0000 0.6694
vn -0.8371 -0.0000 0.5471
vn 0.7923 -0.0000 -0.6102
vn -0.0000 -0.0000 -1.0000
vn -0.7923 -0.0000 -0.6102
vn -0.2589 0.9451 0.1994
vn -0.0000 0.9664 0.2570
vn 0.2589 0.9451 0.1994
vn 0.8371 -0.0000 0.5471
vt 0.000000 0.000000
s 0
usemtl Purple
f 17/1/1 5/1/1 4/1/1 2/1/1
f 1/1/2 3/1/2 59/1/2 55/1/2
f 12/1/3 13/1/3 3/1/3 1/1/3
f 55/1/4 60/1/4 1/1/4
f 1/1/4 60/1/4 2/1/4 12/1/4
f 2/1/4 60/1/4 17/1/4
f 5/1/5 24/1/5 8/1/5 4/1/5
f 3/1/5 7/1/5 6/1/5 59/1/5
f 4/1/5 8/1/5 7/1/5 3/1/5 13/1/5
f 7/1/6 10/1/6 9/1/6 6/1/6
f 8/1/7 11/1/7 10/1/7 7/1/7
f 24/1/8 27/1/8 11/1/8 8/1/8
f 14/1/9 46/1/9 70/1/9
f 15/1/10 46/1/10 14/1/10
f 16/1/11 46/1/11 15/1/11
f 2/1/12 4/1/12 13/1/12 12/1/12
f 27/1/5 16/1/5 15/1/5 11/1/5
f 11/1/5 15/1/5 14/1/5 10/1/5
f 10/1/5 14/1/5 70/1/5 9/1/5
f 20/1/13 23/1/13 22/1/13 19/1/13
f 18/1/14 21/1/14 5/1/14 17/1/14
f 30/1/15 31/1/15 21/1/15 18/1/15
f 17/1/4 60/1/4 18/1/4
f 18/1/4 60/1/4 19/1/4 30/1/4
f 19/1/4 60/1/4 20/1/4
f 23/1/5 39/1/5 26/1/5 22/1/5
f 21/1/5 25/1/5 24/1/5 5/1/5
f 22/1/5 26/1/5 25/1/5 21/1/5 31/1/5
f 25/1/16 28/1/16 27/1/16 24/1/16
f 26/1/17 29/1/17 28/1/17 25/1/17
f 39/1/18 43/1/18 29/1/18 26/1/18
f 32/1/19 46/1/19 16/1/19
f 33/1/20 46/1/20 32/1/20
f 34/1/21 46/1/21 33/1/21
f 19/1/22 22/1/22 31/1/22 30/1/22
f 43/1/5 34/1/5 33/1/5 29/1/5
f 29/1/5 33/1/5 32/1/5 28/1/5
f 28/1/5 32/1/5 16/1/5 27/1/5
f 52/1/23 56/1/23 38/1/23 36/1/23
f 35/1/24 37/1/24 23/1/24 20/1/24
f 47/1/25 48/1/25 37/1/25 35/1/25
f 20/1/4 60/1/4 35/1/4
f 35/1/4 60/1/4 36/1/4 47/1/4
f 36/1/4 60/1/4 52/1/4
f 56/1/5 42/1/5 41/1/5 38/1/5
f 37/1/5 40/1/5 39/1/5 23/1/5
f 38/1/5 41/1/5 40/1/5 37/1/5 48/1/5
f 40/1/26 44/1/26 43/1/26 39/1/26
f 41/1/27 45/1/27 44/1/27 40/1/27
f 42/1/28 63/1/28 45/1/28 41/1/28
f 49/1/29 46/1/29 34/1/29
f 50/1/30 46/1/30 49/1/30
f 51/1/31 46/1/31 50/1/31
f 36/1/32 38/1/32 48/1/32 47/1/32
f 63/1/5 51/1/5 50/1/5 45/1/5
f 45/1/5 50/1/5 49/1/5 44/1/5
f 44/1/5 49/1/5 34/1/5 43/1/5
f 55/1/33 59/1/33 58/1/33 54/1/33
f 53/1/34 57/1/34 56/1/34 52/1/34
f 66/1/35 67/1/35 57/1/35 53/1/35
f 52/1/4 60/1/4 53/1/4
f 53/1/4 60/1/4 54/1/4 66/1/4
f 54/1/4 60/1/4 55/1/4
f 59/1/5 6/1/5 62/1/5 58/1/5
f 57/1/5 61/1/5 42/1/5 56/1/5
f 58/1/5 62/1/5 61/1/5 57/1/5 67/1/5
f 61/1/36 64/1/36 63/1/36 42/1/36
f 62/1/37 65/1/37 64/1/37 61/1/37
f 6/1/38 9/1/38 65/1/38 62/1/38
f 68/1/39 46/1/39 51/1/39
f 69/1/40 46/1/40 68/1/40
f 70/1/41 46/1/41 69/1/41
f 54/1/42 58/1/42 67/1/42 66/1/42
f 9/1/5 70/1/5 69/1/5 65/1/5
f 65/1/5 69/1/5 68/1/5 64/1/5
f 64/1/5 68/1/5 51/1/5 63/1/5
