# Blender 4.2.1 LTS
# www.blender.org
mtllib 4Disc.mtl
o 4Disc
v 0.000000 2.237500 -1.650000
v -1.428942 2.237500 -0.825000
v -1.428942 2.237500 0.825000
v 0.000000 2.237500 1.650000
v 1.428942 2.237500 0.825000
v 1.428942 2.237500 -0.825000
v 0.000000 2.652095 -1.650000
v -1.428942 2.652095 -0.825000
v -1.428942 2.652095 0.825000
v 0.000000 2.652095 1.650000
v 1.428942 2.652095 0.825000
v 1.428942 2.652095 -0.825000
v 0.000000 1.937500 -1.123405
v -0.972897 1.937500 -0.561702
v -0.972897 1.937500 0.561702
v 0.000000 1.937500 1.123405
v 0.972897 1.937500 0.561702
v 0.972897 1.937500 -0.561702
v 0.000000 1.626839 -0.000000
v 0.000000 3.062500 -0.990000
v -0.857365 3.062500 -0.495000
v -0.857365 3.062500 0.495000
v 0.000000 3.062500 0.990000
v 0.857365 3.062500 0.495000
v 0.857365 3.062500 -0.495000
v 0.000000 2.762500 -0.990000
v -0.857365 2.762500 -0.495000
v -0.857365 2.762500 0.495000
v 0.000000 2.762500 0.990000
v 0.857365 2.762500 0.495000
v 0.857365 2.762500 -0.495000
v 0.000000 3.255773 0.000000
vn 1.0000 -0.0000 -0.0000
vn -0.5000 -0.0000 0.8660
vn -0.5000 -0.0000 -0.8660
vn 0.5000 -0.0000 -0.8660
vn 0.5000 -0.0000 0.8660
vn -1.0000 -0.0000 -0.0000
vn 0.2748 -0.8354 0.4759
vn -0.5496 -0.8354 -0.0000
vn 0.5496 -0.8354 -0.0000
vn -0.2748 -0.8354 0.4759
vn -0.2748 -0.8354 -0.4759
vn 0.2748 -0.8354 -0.4759
vn 0.1521 -0.9526 -0.2634
vn 0.1521 -0.9526 0.2634
vn -0.3042 -0.9526 -0.0000
vn 0.3042 -0.9526 -0.0000
vn -0.1521 -0.9526 0.2634
vn -0.1521 -0.9526 -0.2634
vn 0.2916 0.8123 -0.5051
vn 0.2916 0.8123 0.5051
vn -0.5832 0.8123 -0.0000
vn 0.5832 0.8123 -0.0000
vn -0.2916 0.8123 0.5051
vn -0.2916 0.8123 -0.5051
vn 0.2493 0.8668 -0.4319
vn 0.2493 0.8668 0.4319
vn -0.4987 0.8668 -0.0000
vn 0.4987 0.8668 -0.0000
vn -0.2493 0.8668 0.4319
vn -0.2493 0.8668 -0.4319
vt 0.000000 0.000000
s 0
usemtl GreenMetal
f 6/1/1 12/1/1 11/1/1 5/1/1
f 4/1/2 10/1/2 9/1/2 3/1/2
f 2/1/3 8/1/3 7/1/3 1/1/3
f 1/1/4 7/1/4 12/1/4 6/1/4
f 5/1/5 11/1/5 10/1/5 4/1/5
f 3/1/6 9/1/6 8/1/6 2/1/6
f 4/1/7 16/1/7 17/1/7 5/1/7
f 2/1/8 14/1/8 15/1/8 3/1/8
f 5/1/9 17/1/9 18/1/9 6/1/9
f 3/1/10 15/1/10 16/1/10 4/1/10
f 1/1/11 13/1/11 14/1/11 2/1/11
f 6/1/12 18/1/12 13/1/12 1/1/12
f 18/1/13 19/1/13 13/1/13
f 16/1/14 19/1/14 17/1/14
f 14/1/15 19/1/15 15/1/15
f 17/1/16 19/1/16 18/1/16
f 15/1/17 19/1/17 16/1/17
f 13/1/18 19/1/18 14/1/18
f 7/1/19 20/1/19 25/1/19 12/1/19
f 11/1/20 24/1/20 23/1/20 10/1/20
f 9/1/21 22/1/21 21/1/21 8/1/21
f 12/1/22 25/1/22 24/1/22 11/1/22
f 10/1/23 23/1/23 22/1/23 9/1/23
f 8/1/24 21/1/24 20/1/24 7/1/24
f 25/1/6 31/1/6 30/1/6 24/1/6
f 23/1/4 29/1/4 28/1/4 22/1/4
f 21/1/5 27/1/5 26/1/5 20/1/5
f 20/1/2 26/1/2 31/1/2 25/1/2
f 24/1/3 30/1/3 29/1/3 23/1/3
f 22/1/1 28/1/1 27/1/1 21/1/1
f 26/1/25 32/1/25 31/1/25
f 30/1/26 32/1/26 29/1/26
f 28/1/27 32/1/27 27/1/27
f 31/1/28 32/1/28 30/1/28
f 29/1/29 32/1/29 28/1/29
f 27/1/30 32/1/30 26/1/30
