# Blender 4.2.1 LTS
# www.blender.org
mtllib 6Disc.mtl
o 6Disc
v -0.500000 2.600000 -0.866025
v -0.866025 2.600000 -0.500000
v -0.866025 2.600000 0.500000
v -0.500000 2.600000 0.866025
v 0.500000 2.600000 0.866025
v 0.866025 2.600000 0.500000
v 0.866025 2.600000 -0.500000
v 0.500000 2.600000 -0.866025
v 0.000000 2.443897 -0.800842
v -0.400421 2.443897 -0.693550
v -0.693550 2.443897 -0.400421
v -0.800842 2.443897 0.000000
v -0.693550 2.443897 0.400421
v -0.400421 2.443897 0.693550
v 0.000000 2.443897 0.800842
v 0.400421 2.443897 0.693550
v 0.693550 2.443897 0.400421
v 0.800842 2.443897 0.000000
v 0.693550 2.443897 -0.400421
v 0.400421 2.443897 -0.693550
v 0.000000 2.060916 0.000000
v 0.866025 2.850540 -0.500000
v 0.866025 2.850540 0.500000
v 0.500000 2.850540 0.866025
v -0.500000 2.850540 0.866025
v -0.866025 2.850540 0.500000
v -0.866025 2.850540 -0.500000
v -0.500000 2.850540 -0.866025
v 0.500000 2.850540 -0.866025
v 0.684761 2.850540 -0.395347
v 0.791798 2.814659 0.040113
v 0.684761 2.850540 0.395347
v 0.395347 2.850540 0.684761
v -0.034600 2.814659 0.793413
v -0.395347 2.850540 0.684761
v -0.700355 2.814659 0.366836
v -0.787900 2.814659 -0.032986
v -0.684761 2.850540 -0.395347
v -0.395347 2.850540 -0.684761
v 0.038499 2.814659 -0.786285
v 0.395347 2.850540 -0.684761
v 0.684761 2.726548 -0.395347
v 0.790694 2.726548 -0.000000
v 0.684761 2.726548 0.395347
v 0.395347 2.726548 0.684761
v -0.000000 2.726548 0.790694
v -0.395347 2.726548 0.684761
v -0.684761 2.726548 0.395347
v -0.790694 2.726548 -0.000000
v -0.684761 2.726548 -0.395347
v -0.395347 2.726548 -0.684761
v -0.000000 2.726548 -0.790694
v 0.395347 2.726548 -0.684761
v -0.000000 2.726548 -0.000000
v -2.011847 2.600000 -0.904332
v -0.904332 2.600000 2.011847
v 2.011847 2.600000 0.904332
v 0.904332 2.600000 -2.011847
v 0.904332 2.850540 -2.011847
v 2.011847 2.850540 0.904332
v -0.904332 2.850540 2.011847
v -2.011847 2.850540 -0.904332
v -0.848121 2.600000 -2.162441
v -0.743813 2.600000 -2.219793
v -2.162441 2.600000 0.848121
v -2.219793 2.600000 0.743813
v 0.848121 2.600000 2.162441
v 0.743813 2.600000 2.219793
v 2.162441 2.600000 -0.848121
v 2.219793 2.600000 -0.743813
v 2.219793 2.850540 -0.743813
v 2.162441 2.850540 -0.848121
v 1.801703 2.814658 -0.554009
v 0.743813 2.850540 2.219793
v 0.848121 2.850540 2.162441
v 0.559522 2.814658 1.803318
v -2.219793 2.850540 0.743813
v -2.162441 2.850540 0.848121
v -1.797804 2.814658 0.561137
v -0.743813 2.850540 -2.219793
v -0.848121 2.850540 -2.162441
v -0.555624 2.814658 -1.796190
vn -0.1353 -0.9815 -0.1353
vn -0.2593 -0.0000 -0.9658
vn 0.9658 -0.0000 -0.2593
vn 0.2593 -0.0000 0.9658
vn 0.0441 0.9935 0.1047
vn 0.6766 -0.0000 0.7364
vn -0.7364 -0.0000 0.6766
vn 0.1353 -0.9815 -0.1353
vn 0.7364 -0.0000 -0.6766
vn 0.1353 -0.9815 0.1353
vn -0.1353 -0.9815 0.1353
vn 0.1148 -0.8962 0.4286
vn -0.4286 -0.8962 0.1148
vn 0.3137 -0.8962 -0.3137
vn -0.1148 -0.8962 -0.4286
vn 0.3137 -0.8962 0.3137
vn -0.3137 -0.8962 0.3137
vn 0.1148 -0.8962 -0.4286
vn -0.3137 -0.8962 -0.3137
vn 0.4286 -0.8962 0.1148
vn -0.1148 -0.8962 0.4286
vn -0.4286 -0.8962 -0.1148
vn 0.4286 -0.8962 -0.1148
vn -0.6766 -0.0000 -0.7364
vn -0.3328 -0.0000 0.9430
vn -0.1631 -0.7765 -0.6086
vn 0.1631 -0.7765 -0.6086
vn -0.6086 -0.7765 0.1631
vn 0.2607 -0.9352 -0.2396
vn -0.0850 -0.9953 0.0467
vn -0.6086 -0.7765 -0.1631
vn -0.9430 -0.0000 -0.3328
vn -0.2396 -0.9352 -0.2607
vn 0.3328 -0.0000 -0.9430
vn 0.9430 -0.0000 0.3328
vn 0.1055 0.9918 -0.0719
vn -0.0728 0.9916 -0.1069
vn 0.0707 0.9921 0.1039
vn -0.0237 0.9942 -0.1048
vn -0.1062 0.9933 0.0447
vn -0.1052 0.9919 0.0717
vn 0.1059 0.9934 -0.0446
vn -0.0000 1.0000 -0.0000
vn 0.0087 0.9997 -0.0221
vn 0.9632 0.0289 0.2671
vn 0.2751 0.0572 -0.9597
vn -0.9597 0.0570 -0.2750
vn 0.7071 -0.0000 0.7071
vn -0.2670 0.0284 0.9633
vn 0.7153 -0.0412 -0.6976
vn -0.7071 -0.0000 -0.7071
vn 0.2396 -0.0636 0.9688
vn -0.7071 -0.0000 0.7071
vn 0.9716 -0.0119 -0.2364
vn -0.2504 -0.0284 -0.9677
vn -0.9683 -0.0416 0.2464
vn -0.9997 -0.0000 -0.0253
vn -0.0253 -0.0000 0.9997
vn 0.9997 -0.0000 0.0253
vn 0.0253 -0.0000 -0.9997
vn 0.0824 -0.9482 0.3068
vn -0.0467 -0.9953 -0.0850
vn -0.3068 -0.9482 0.0824
vn -0.0685 0.9969 0.0376
vn -0.0380 0.9969 -0.0691
vn 0.0685 0.9969 -0.0376
vn 0.0373 0.9970 0.0679
vn -0.8763 -0.0000 0.4818
vn 0.4818 -0.0000 0.8763
vn 0.8763 -0.0000 -0.4818
vn -0.4818 -0.0000 -0.8763
vn -0.9658 -0.0000 0.2593
vn 0.6086 -0.7765 -0.1631
vn 0.0850 -0.9953 -0.0467
vn -0.0824 -0.9482 -0.3068
vn 0.6086 -0.7765 0.1631
vn 0.2396 -0.9352 0.2607
vn 0.1631 -0.7765 0.6086
vn 0.3068 -0.9482 -0.0824
vn 0.0467 -0.9953 0.0850
vn -0.1631 -0.7765 0.6086
vn -0.2607 -0.9352 0.2396
vt 0.000000 0.000000
s 0
usemtl MagentaMetal
f 2/1/1 55/1/1 1/1/1 10/1/1 11/1/1
f 69/1/2 7/1/2 22/1/2 72/1/2
f 67/1/3 5/1/3 24/1/3 75/1/3
f 65/1/4 3/1/4 26/1/4 78/1/4
f 73/1/5 72/1/5 22/1/5 30/1/5 31/1/5
f 6/1/6 70/1/6 71/1/6 23/1/6
f 4/1/7 68/1/7 74/1/7 25/1/7
f 8/1/8 58/1/8 7/1/8 19/1/8 20/1/8
f 8/1/9 64/1/9 80/1/9 29/1/9
f 6/1/10 57/1/10 5/1/10 16/1/10 17/1/10
f 4/1/11 56/1/11 3/1/11 13/1/11 14/1/11
f 16/1/12 15/1/12 21/1/12
f 13/1/13 12/1/13 21/1/13
f 20/1/14 19/1/14 21/1/14
f 10/1/15 9/1/15 21/1/15
f 17/1/16 16/1/16 21/1/16
f 14/1/17 13/1/17 21/1/17
f 9/1/18 20/1/18 21/1/18
f 11/1/19 10/1/19 21/1/19
f 18/1/20 17/1/20 21/1/20
f 15/1/21 14/1/21 21/1/21
f 12/1/22 11/1/22 21/1/22
f 19/1/23 18/1/23 21/1/23
f 2/1/24 66/1/24 77/1/24 27/1/24
f 55/1/25 2/1/25 27/1/25 62/1/25
f 1/1/26 9/1/26 10/1/26
f 8/1/27 20/1/27 9/1/27
f 3/1/28 12/1/28 13/1/28
f 9/1/29 64/1/29 8/1/29
f 66/1/30 12/1/30 65/1/30
f 12/1/31 2/1/31 11/1/31
f 58/1/32 8/1/32 29/1/32 59/1/32
f 12/1/33 66/1/33 2/1/33
f 57/1/34 6/1/34 23/1/34 60/1/34
f 56/1/35 4/1/35 25/1/35 61/1/35
f 25/1/36 74/1/36 76/1/36 34/1/36 35/1/36
f 23/1/37 71/1/37 73/1/37 31/1/37 32/1/37
f 27/1/38 77/1/38 79/1/38 37/1/38 38/1/38
f 79/1/39 78/1/39 26/1/39 36/1/39 37/1/39
f 76/1/40 75/1/40 24/1/40 33/1/40 34/1/40
f 29/1/41 80/1/41 82/1/41 40/1/41 41/1/41
f 82/1/42 81/1/42 28/1/42 39/1/42 40/1/42
f 24/1/43 60/1/43 23/1/43 32/1/43 33/1/43
f 28/1/43 62/1/43 27/1/43 38/1/43 39/1/43
f 22/1/43 59/1/43 29/1/43 41/1/43 30/1/43
f 26/1/44 61/1/44 25/1/44 35/1/44 36/1/44
f 38/1/45 37/1/45 49/1/45 50/1/45
f 35/1/46 34/1/46 46/1/46 47/1/46
f 32/1/47 31/1/47 43/1/47 44/1/47
f 39/1/48 38/1/48 50/1/48 51/1/48
f 41/1/49 40/1/49 52/1/49 53/1/49
f 36/1/50 35/1/50 47/1/50 48/1/50
f 33/1/51 32/1/51 44/1/51 45/1/51
f 40/1/52 39/1/52 51/1/52 52/1/52
f 30/1/53 41/1/53 53/1/53 42/1/53
f 37/1/54 36/1/54 48/1/54 49/1/54
f 34/1/55 33/1/55 45/1/55 46/1/55
f 31/1/56 30/1/56 42/1/56 43/1/56
f 43/1/43 42/1/43 54/1/43
f 50/1/43 49/1/43 54/1/43
f 47/1/43 46/1/43 54/1/43
f 44/1/43 43/1/43 54/1/43
f 51/1/43 50/1/43 54/1/43
f 53/1/43 52/1/43 54/1/43
f 48/1/43 47/1/43 54/1/43
f 45/1/43 44/1/43 54/1/43
f 52/1/43 51/1/43 54/1/43
f 42/1/43 53/1/43 54/1/43
f 49/1/43 48/1/43 54/1/43
f 46/1/43 45/1/43 54/1/43
f 3/1/57 56/1/57 61/1/57 26/1/57
f 5/1/58 57/1/58 60/1/58 24/1/58
f 7/1/59 58/1/59 59/1/59 22/1/59
f 1/1/60 55/1/60 62/1/60 28/1/60
f 3/1/61 65/1/61 12/1/61
f 9/1/62 63/1/62 64/1/62
f 1/1/63 63/1/63 9/1/63
f 71/1/64 72/1/64 73/1/64
f 74/1/65 75/1/65 76/1/65
f 77/1/66 78/1/66 79/1/66
f 80/1/67 81/1/67 82/1/67
f 65/1/68 78/1/68 77/1/68 66/1/68
f 67/1/69 75/1/69 74/1/69 68/1/69
f 69/1/70 72/1/70 71/1/70 70/1/70
f 63/1/71 81/1/71 80/1/71 64/1/71
f 63/1/72 1/1/72 28/1/72 81/1/72
f 7/1/73 18/1/73 19/1/73
f 18/1/74 69/1/74 70/1/74
f 7/1/75 69/1/75 18/1/75
f 18/1/76 6/1/76 17/1/76
f 18/1/77 70/1/77 6/1/77
f 5/1/78 15/1/78 16/1/78
f 5/1/79 67/1/79 15/1/79
f 67/1/80 68/1/80 15/1/80
f 15/1/81 4/1/81 14/1/81
f 15/1/82 68/1/82 4/1/82
