# Blender 4.2.1 LTS
# www.blender.org
mtllib 7Disc.mtl
o 7Disc
v -1.625317 2.434132 1.625317
v -1.625317 3.100000 1.625317
v -1.625317 2.434132 -1.625317
v -1.625317 3.100000 -1.625317
v 1.625317 2.434132 1.625317
v 1.625317 3.100000 1.625317
v 1.625317 2.434132 -1.625317
v 1.625317 3.100000 -1.625317
v -1.145638 3.100000 1.145638
v -1.145638 3.100000 -1.145638
v 1.145638 3.100000 1.145638
v 1.145638 3.100000 -1.145638
v -0.971200 2.889542 0.971200
v -0.971200 2.889542 -0.971200
v 0.971200 2.889542 0.971200
v 0.971200 2.889542 -0.971200
v 0.000000 2.889542 0.000000
v 0.975190 2.255774 0.975190
v -0.975190 2.255774 -0.975190
v -0.975190 2.255774 0.975190
v 0.975190 2.255774 -0.975190
v 0.507735 1.880617 0.507735
v -0.507735 1.880617 -0.507735
v -0.507735 1.880617 0.507735
v 0.507735 1.880617 -0.507735
v 0.180977 1.482617 0.180977
v -0.180977 1.482617 -0.180977
v -0.180977 1.482617 0.180977
v 0.180977 1.482617 -0.180977
v -2.112912 2.434132 0.000000
v -2.112912 3.100000 0.000000
v 0.000000 2.434132 -2.112912
v 0.000000 3.100000 -2.112912
v 2.112912 2.434132 0.000000
v 2.112912 3.100000 0.000000
v 0.000000 2.434132 2.112912
v 0.000000 3.100000 2.112912
vn -0.9578 -0.0000 -0.2873
vn 0.2873 -0.0000 -0.9578
vn 0.9578 -0.0000 0.2873
vn -0.2873 -0.0000 0.9578
vn -0.0000 -0.9830 0.1836
vn -0.0000 1.0000 -0.0000
vn -0.7699 0.6381 -0.0000
vn 0.7699 0.6381 -0.0000
vn -0.0000 0.6381 -0.7699
vn -0.0000 0.6381 0.7699
vn -0.0000 -0.7799 -0.6259
vn -0.0000 -0.9830 -0.1836
vn -0.1836 -0.9830 -0.0000
vn 0.1836 -0.9830 -0.0000
vn -0.0000 -0.6345 -0.7729
vn 0.6259 -0.7799 -0.0000
vn -0.6259 -0.7799 -0.0000
vn -0.0000 -0.7799 0.6259
vn -0.0000 -1.0000 -0.0000
vn -0.0000 -0.6345 0.7729
vn -0.7729 -0.6345 -0.0000
vn 0.7729 -0.6345 -0.0000
vn 0.2873 -0.0000 0.9578
vn 0.9578 -0.0000 -0.2873
vn -0.2873 -0.0000 -0.9578
vn -0.9578 -0.0000 0.2873
vt 0.375000 0.125000
vt 0.625000 0.125000
vt 0.625000 0.250000
vt 0.375000 0.250000
vt 0.375000 0.375000
vt 0.625000 0.375000
vt 0.625000 0.500000
vt 0.375000 0.500000
vt 0.375000 0.625000
vt 0.625000 0.625000
vt 0.625000 0.750000
vt 0.375000 0.750000
vt 0.375000 0.875000
vt 0.625000 0.875000
vt 0.625000 1.000000
vt 0.375000 1.000000
vt 0.625000 0.000000
vt 0.375000 0.000000
vt 0.125000 0.500000
vt 0.125000 0.750000
s 0
usemtl Gray
f 30/1/1 31/2/1 4/3/1 3/4/1
f 32/5/2 33/6/2 8/7/2 7/8/2
f 34/9/3 35/10/3 6/11/3 5/12/3
f 36/13/4 37/14/4 2/15/4 1/16/4
f 5/12/5 36/13/5 1/16/5 20/16/5 18/12/5
f 8/7/6 33/6/6 4/3/6 10/3/6 12/7/6
f 6/11/6 35/10/6 8/7/6 12/7/6 11/11/6
f 4/3/6 31/2/6 2/17/6 9/17/6 10/3/6
f 2/15/6 37/14/6 6/11/6 11/11/6 9/15/6
f 11/11/7 12/7/7 16/7/7 15/11/7
f 10/3/8 9/17/8 13/17/8 14/3/8
f 9/15/9 11/11/9 15/11/9 13/15/9
f 12/7/10 10/3/10 14/3/10 16/7/10
f 13/15/6 15/11/6 17/15/6
f 16/7/6 14/3/6 17/7/6
f 15/11/6 16/7/6 17/11/6
f 14/3/6 13/17/6 17/3/6
f 19/4/11 21/8/11 25/8/11 23/4/11
f 3/4/12 32/5/12 7/8/12 21/8/12 19/4/12
f 1/18/13 30/1/13 3/4/13 19/4/13 20/18/13
f 7/8/14 34/9/14 5/12/14 18/12/14 21/8/14
f 23/4/15 25/8/15 29/8/15 27/4/15
f 21/8/16 18/12/16 22/12/16 25/8/16
f 20/18/17 19/4/17 23/4/17 24/18/17
f 18/12/18 20/16/18 24/16/18 22/12/18
f 27/19/19 29/8/19 26/12/19 28/20/19
f 22/12/20 24/16/20 28/16/20 26/12/20
f 24/18/21 23/4/21 27/4/21 28/18/21
f 25/8/22 22/12/22 26/12/22 29/8/22
f 5/12/23 6/11/23 37/14/23 36/13/23
f 7/8/24 8/7/24 35/10/24 34/9/24
f 3/4/25 4/3/25 33/6/25 32/5/25
f 1/18/26 2/17/26 31/2/26 30/1/26
