# Blender 4.2.1 LTS
# www.blender.org
mtllib 2Bit.mtl
o 2Bit
v -0.000000 0.000000 -0.250000
v -0.125000 0.000000 -0.216506
v -0.216506 0.000000 -0.125000
v -0.250000 0.000000 0.000000
v -0.216506 0.000000 0.125000
v -0.125000 0.000000 0.216506
v -0.000000 0.000000 0.250000
v 0.125000 0.000000 0.216506
v 0.216506 0.000000 0.125000
v 0.250000 0.000000 0.000000
v 0.216506 0.000000 -0.125000
v 0.125000 0.000000 -0.216506
v -0.000000 0.500000 -0.250000
v -0.125000 0.500000 -0.216506
v -0.216506 0.500000 -0.125000
v -0.250000 0.500000 0.000000
v -0.216506 0.500000 0.125000
v -0.125000 0.500000 0.216506
v -0.000000 0.500000 0.250000
v 0.125000 0.500000 0.216506
v 0.216506 0.500000 0.125000
v 0.250000 0.500000 0.000000
v 0.216506 0.500000 -0.125000
v 0.125000 0.500000 -0.216506
v -0.000000 0.752989 -0.425000
v -0.212500 0.752989 -0.368061
v -0.368061 0.752989 -0.212500
v -0.425000 0.752989 0.000000
v -0.368061 0.752989 0.212500
v -0.212500 0.752989 0.368061
v -0.000000 0.752989 0.425000
v 0.212500 0.752989 0.368061
v 0.368061 0.752989 0.212500
v 0.425000 0.752989 0.000000
v 0.368061 0.752989 -0.212500
v 0.212500 0.752989 -0.368061
v -0.000000 0.992989 -0.425000
v -0.212500 0.992989 -0.368061
v -0.368061 0.992989 -0.212500
v -0.425000 0.992989 0.000000
v -0.368061 0.992989 0.212500
v -0.212500 0.992989 0.368061
v -0.000000 0.992989 0.425000
v 0.212500 0.992989 0.368061
v 0.368061 0.992989 0.212500
v 0.425000 0.992989 0.000000
v 0.368061 0.992989 -0.212500
v 0.212500 0.992989 -0.368061
v 0.000000 0.992989 -1.122000
v -0.467500 0.992989 -0.809734
v -0.809734 0.992989 -0.467500
v -1.122000 0.992989 0.000000
v -0.809734 0.992989 0.467500
v -0.467500 0.992989 0.809734
v 0.000000 0.992989 1.122000
v 0.467500 0.992989 0.809734
v 0.809734 0.992989 0.467500
v 1.122000 0.992989 0.000000
v 0.809734 0.992989 -0.467500
v 0.467500 0.992989 -0.809734
v 0.000000 1.292989 -1.122000
v -0.467500 1.292989 -0.809734
v -0.809734 1.292989 -0.467500
v -1.122000 1.292989 0.000000
v -0.809734 1.292989 0.467500
v -0.467500 1.292989 0.809734
v 0.000000 1.292989 1.122000
v 0.467500 1.292989 0.809734
v 0.809734 1.292989 0.467500
v 1.122000 1.292989 0.000000
v 0.809734 1.292989 -0.467500
v 0.467500 1.292989 -0.809734
v -0.000000 1.292989 -0.420750
v -0.210375 1.292989 -0.364380
v -0.364380 1.292989 -0.210375
v -0.420750 1.292989 0.000000
v -0.364380 1.292989 0.210375
v -0.210375 1.292989 0.364380
v -0.000000 1.292989 0.420750
v 0.210375 1.292989 0.364380
v 0.364380 1.292989 0.210375
v 0.420750 1.292989 0.000000
v 0.364380 1.292989 -0.210375
v 0.210375 1.292989 -0.364380
v -0.210375 1.642989 -0.364380
v -0.364380 1.642989 -0.210375
v -0.420750 1.642989 0.000000
v -0.364380 1.642989 0.210375
v -0.210375 1.642989 0.364380
v 0.210375 1.642989 0.364380
v 0.364380 1.642989 0.210375
v 0.364380 1.642989 -0.210375
v 0.210375 1.642989 -0.364380
v -0.000000 2.542989 0.000000
v -0.255066 2.542989 -0.147262
v -0.294525 2.542989 0.000000
v -0.255066 2.542989 0.147262
v -0.147263 2.542989 0.255066
v 0.147262 2.542989 0.255066
v 0.255066 2.542989 0.147262
v 0.255066 2.542989 -0.147262
v 0.147262 2.542989 -0.255066
v 0.294525 2.542989 0.000000
v -0.000000 2.542989 0.294525
v -0.000000 2.542989 -0.294525
v -0.147263 2.042989 -0.255066
v 0.472577 1.292989 -0.472577
v 0.472577 1.292989 0.472577
v -0.472577 1.292989 0.472577
v -0.472577 1.292989 -0.472577
v 0.472577 0.992989 -0.472577
v 0.472577 0.992989 0.472577
v -0.472577 0.992989 0.472577
v -0.472577 0.992989 -0.472577
v -0.073631 1.292989 -0.274796
v -0.201164 1.292989 -0.201164
v -0.274796 1.292989 -0.073631
v -0.274796 1.292989 0.073631
v -0.201164 1.292989 0.201164
v -0.073631 1.292989 0.274796
v 0.073631 1.292989 0.274796
v 0.201164 1.292989 0.201164
v 0.274796 1.292989 0.073631
v 0.274796 1.292989 -0.073631
v 0.201164 1.292989 -0.201164
v 0.073631 1.292989 -0.274796
v -0.105188 1.642989 -0.392565
v -0.287378 1.642989 -0.287378
v -0.392565 1.642989 -0.105188
v -0.392565 1.642989 0.105188
v -0.287378 1.642989 0.287378
v -0.105188 1.642989 0.392565
v 0.105188 1.642989 0.392565
v 0.287378 1.642989 0.287378
v 0.392565 1.642989 0.105188
v 0.392565 1.642989 -0.105188
v 0.287378 1.642989 -0.287378
v 0.105187 1.642989 -0.392565
v 0.420750 1.642989 0.000000
v -0.000000 1.642989 0.420750
v -0.000000 1.642989 -0.420750
v -0.274796 1.642989 -0.073631
v -0.073631 1.642989 0.274796
v 0.274796 1.642989 0.073631
v -0.201164 1.642989 -0.201164
v 0.073631 1.642989 -0.274796
v -0.201164 1.642989 0.201164
v 0.201164 1.642989 0.201164
v -0.073631 1.642989 -0.274796
v 0.201164 1.642989 -0.201164
v -0.274796 1.642989 0.073631
v 0.073631 1.642989 0.274796
v 0.274796 1.642989 -0.073631
v -0.210375 2.042989 -0.364380
v -0.364380 2.042989 -0.210375
v -0.420750 2.042989 0.000000
v -0.364380 2.042989 0.210375
v -0.210375 2.042989 0.364380
v 0.210375 2.042989 0.364380
v 0.364380 2.042989 0.210375
v 0.364380 2.042989 -0.210375
v 0.210375 2.042989 -0.364380
v 0.420750 2.042989 0.000000
v -0.000000 2.042989 0.420750
v -0.000000 2.042989 -0.420750
v -0.147263 2.542989 -0.255066
v -0.000000 2.042989 -0.294525
v -0.000000 2.042989 0.294525
v 0.294525 2.042989 0.000000
v 0.147262 2.042989 -0.255066
v 0.255066 2.042989 -0.147262
v 0.255066 2.042989 0.147262
v 0.147262 2.042989 0.255066
v -0.147263 2.042989 0.255066
v -0.255066 2.042989 0.147262
v -0.294525 2.042989 0.000000
v -0.255066 2.042989 -0.147262
v -0.000000 0.000000 0.000000
vn 0.2588 -0.0000 0.9659
vn -0.9659 -0.0000 0.2588
vn 0.7071 -0.0000 -0.7071
vn -0.2588 -0.0000 -0.9659
vn 0.7071 -0.0000 0.7071
vn -0.7071 -0.0000 0.7071
vn 0.2588 -0.0000 -0.9659
vn -0.7071 -0.0000 -0.7071
vn 0.9659 -0.0000 0.2588
vn -0.2588 -0.0000 0.9659
vn -0.9659 -0.0000 -0.2588
vn 0.9659 -0.0000 -0.2588
vn 0.2152 -0.5556 -0.8031
vn -0.5879 -0.5556 -0.5879
vn 0.8031 -0.5556 0.2152
vn -0.2152 -0.5556 0.8031
vn -0.8031 -0.5556 -0.2152
vn 0.8031 -0.5556 -0.2152
vn 0.2152 -0.5556 0.8031
vn -0.8031 -0.5556 0.2152
vn 0.5879 -0.5556 -0.5879
vn -0.2152 -0.5556 -0.8031
vn 0.5879 -0.5556 0.5879
vn -0.5879 -0.5556 0.5879
vn -0.0000 -1.0000 -0.0000
vn 0.5554 -0.0000 0.8316
vn -0.8316 -0.0000 0.5554
vn 0.0151 -0.0000 -0.9999
vn -0.5554 -0.0000 -0.8316
vn 0.9999 -0.0000 0.0151
vn -0.0151 -0.0000 0.9999
vn 0.5554 -0.0000 -0.8316
vn -0.9999 -0.0000 -0.0151
vn 0.8316 -0.0000 0.5554
vn -0.5554 -0.0000 0.8316
vn -0.8316 -0.0000 -0.5554
vn 0.8316 -0.0000 -0.5554
vn -0.0000 1.0000 -0.0000
vn -0.0151 -0.0000 -0.9999
vn -0.9999 -0.0000 0.0151
vn 0.0151 -0.0000 0.9999
vn 0.9999 -0.0000 -0.0151
vn -0.4504 -0.0000 -0.8928
vn -0.8365 -0.0000 0.5480
vn -0.8928 -0.0000 0.4504
vn 0.5480 -0.0000 0.8365
vn 0.4504 -0.0000 0.8928
vn 0.8365 -0.0000 -0.5480
vn 0.0563 -0.0000 -0.9984
vn -0.9984 -0.0000 0.0563
vn 0.8928 -0.0000 -0.4504
vn -0.5480 -0.0000 -0.8365
vn -0.9984 -0.0000 -0.0563
vn 0.0563 -0.0000 0.9984
vn -0.0563 -0.0000 0.9984
vn 0.9984 -0.0000 -0.0563
vn 0.5480 -0.0000 -0.8365
vn -0.8928 -0.0000 -0.4504
vn 0.9984 -0.0000 0.0563
vn -0.0563 -0.0000 -0.9984
vn -0.8365 -0.0000 -0.5480
vn -0.4504 -0.0000 0.8928
vn -0.5480 -0.0000 0.8365
vn 0.8928 -0.0000 0.4504
vn 0.8365 -0.0000 0.5480
vn 0.4504 -0.0000 -0.8928
vt 0.000000 0.000000
s 0
usemtl Purple
f 8/1/1 20/1/1 19/1/1 7/1/1
f 5/1/2 17/1/2 16/1/2 4/1/2
f 12/1/3 24/1/3 23/1/3 11/1/3
f 2/1/4 14/1/4 13/1/4 1/1/4
f 9/1/5 21/1/5 20/1/5 8/1/5
f 6/1/6 18/1/6 17/1/6 5/1/6
f 1/1/7 13/1/7 24/1/7 12/1/7
f 3/1/8 15/1/8 14/1/8 2/1/8
f 10/1/9 22/1/9 21/1/9 9/1/9
f 7/1/10 19/1/10 18/1/10 6/1/10
f 4/1/11 16/1/11 15/1/11 3/1/11
f 11/1/12 23/1/12 22/1/12 10/1/12
f 13/1/13 25/1/13 36/1/13 24/1/13
f 15/1/14 27/1/14 26/1/14 14/1/14
f 22/1/15 34/1/15 33/1/15 21/1/15
f 19/1/16 31/1/16 30/1/16 18/1/16
f 16/1/17 28/1/17 27/1/17 15/1/17
f 23/1/18 35/1/18 34/1/18 22/1/18
f 20/1/19 32/1/19 31/1/19 19/1/19
f 17/1/20 29/1/20 28/1/20 16/1/20
f 24/1/21 36/1/21 35/1/21 23/1/21
f 14/1/22 26/1/22 25/1/22 13/1/22
f 21/1/23 33/1/23 32/1/23 20/1/23
f 18/1/24 30/1/24 29/1/24 17/1/24
f 34/1/9 46/1/9 45/1/9 33/1/9
f 31/1/10 43/1/10 42/1/10 30/1/10
f 28/1/11 40/1/11 39/1/11 27/1/11
f 35/1/12 47/1/12 46/1/12 34/1/12
f 32/1/1 44/1/1 43/1/1 31/1/1
f 29/1/2 41/1/2 40/1/2 28/1/2
f 36/1/3 48/1/3 47/1/3 35/1/3
f 26/1/4 38/1/4 37/1/4 25/1/4
f 33/1/5 45/1/5 44/1/5 32/1/5
f 30/1/6 42/1/6 41/1/6 29/1/6
f 25/1/7 37/1/7 48/1/7 36/1/7
f 27/1/8 39/1/8 38/1/8 26/1/8
f 41/1/25 53/1/25 52/1/25 40/1/25
f 48/1/25 60/1/25 111/1/25 59/1/25 47/1/25
f 38/1/25 50/1/25 49/1/25 37/1/25
f 45/1/25 57/1/25 112/1/25 56/1/25 44/1/25
f 42/1/25 54/1/25 113/1/25 53/1/25 41/1/25
f 37/1/25 49/1/25 60/1/25 48/1/25
f 39/1/25 51/1/25 114/1/25 50/1/25 38/1/25
f 46/1/25 58/1/25 57/1/25 45/1/25
f 43/1/25 55/1/25 54/1/25 42/1/25
f 40/1/25 52/1/25 51/1/25 39/1/25
f 47/1/25 59/1/25 58/1/25 46/1/25
f 44/1/25 56/1/25 55/1/25 43/1/25
f 56/1/26 68/1/26 67/1/26 55/1/26
f 53/1/27 65/1/27 64/1/27 52/1/27
f 111/1/28 107/1/28 71/1/28 59/1/28
f 50/1/29 62/1/29 61/1/29 49/1/29
f 112/1/30 108/1/30 68/1/30 56/1/30
f 113/1/31 109/1/31 65/1/31 53/1/31
f 49/1/32 61/1/32 72/1/32 60/1/32
f 114/1/33 110/1/33 62/1/33 50/1/33
f 58/1/34 70/1/34 69/1/34 57/1/34
f 55/1/35 67/1/35 66/1/35 54/1/35
f 52/1/36 64/1/36 63/1/36 51/1/36
f 59/1/37 71/1/37 70/1/37 58/1/37
f 68/1/38 80/1/38 121/1/38 79/1/38 67/1/38
f 65/1/38 77/1/38 118/1/38 76/1/38 64/1/38
f 72/1/38 84/1/38 125/1/38 83/1/38 71/1/38 107/1/38
f 62/1/38 74/1/38 115/1/38 73/1/38 61/1/38
f 69/1/38 81/1/38 122/1/38 80/1/38 68/1/38 108/1/38
f 66/1/38 78/1/38 119/1/38 77/1/38 65/1/38 109/1/38
f 61/1/38 73/1/38 126/1/38 84/1/38 72/1/38
f 63/1/38 75/1/38 116/1/38 74/1/38 62/1/38 110/1/38
f 70/1/38 82/1/38 123/1/38 81/1/38 69/1/38
f 67/1/38 79/1/38 120/1/38 78/1/38 66/1/38
f 64/1/38 76/1/38 117/1/38 75/1/38 63/1/38
f 71/1/38 83/1/38 124/1/38 82/1/38 70/1/38
f 153/1/25 136/1/25 139/1/25
f 152/1/25 133/1/25 140/1/25
f 151/1/25 130/1/25 87/1/25
f 150/1/25 137/1/25 92/1/25
f 149/1/25 127/1/25 141/1/25
f 148/1/25 134/1/25 90/1/25
f 147/1/25 131/1/25 88/1/25
f 146/1/25 138/1/25 93/1/25
f 145/1/25 128/1/25 85/1/25
f 144/1/25 135/1/25 91/1/25
f 143/1/25 132/1/25 89/1/25
f 142/1/25 129/1/25 86/1/25
f 98/1/38 94/1/38 97/1/38
f 169/1/9 103/1/9 100/1/9 172/1/9
f 100/1/38 94/1/38 99/1/38
f 172/1/5 100/1/5 99/1/5 173/1/5
f 101/1/38 102/1/38 94/1/38
f 97/1/38 94/1/38 96/1/38
f 96/1/38 94/1/38 95/1/38
f 174/1/6 98/1/6 97/1/6 175/1/6
f 168/1/1 173/1/1 99/1/1 104/1/1
f 101/1/38 94/1/38 103/1/38
f 176/1/11 96/1/11 95/1/11 177/1/11
f 171/1/3 170/1/3 102/1/3 101/1/3
f 51/1/39 63/1/39 110/1/39 114/1/39
f 54/1/40 66/1/40 109/1/40 113/1/40
f 57/1/41 69/1/41 108/1/41 112/1/41
f 60/1/42 72/1/42 107/1/42 111/1/42
f 87/1/25 129/1/25 142/1/25
f 76/1/43 87/1/43 142/1/43 117/1/43
f 117/1/44 142/1/44 86/1/44 75/1/44
f 140/1/25 132/1/25 143/1/25
f 79/1/45 140/1/45 143/1/45 120/1/45
f 120/1/46 143/1/46 89/1/46 78/1/46
f 139/1/25 135/1/25 144/1/25
f 82/1/47 139/1/47 144/1/47 123/1/47
f 123/1/48 144/1/48 91/1/48 81/1/48
f 86/1/25 128/1/25 145/1/25
f 75/1/49 86/1/49 145/1/49 116/1/49
f 116/1/50 145/1/50 85/1/50 74/1/50
f 141/1/25 138/1/25 146/1/25
f 73/1/51 141/1/51 146/1/51 126/1/51
f 126/1/52 146/1/52 93/1/52 84/1/52
f 89/1/25 131/1/25 147/1/25
f 78/1/53 89/1/53 147/1/53 119/1/53
f 119/1/54 147/1/54 88/1/54 77/1/54
f 91/1/25 134/1/25 148/1/25
f 81/1/55 91/1/55 148/1/55 122/1/55
f 122/1/56 148/1/56 90/1/56 80/1/56
f 85/1/25 127/1/25 149/1/25
f 74/1/57 85/1/57 149/1/57 115/1/57
f 115/1/58 149/1/58 141/1/58 73/1/58
f 93/1/25 137/1/25 150/1/25
f 84/1/59 93/1/59 150/1/59 125/1/59
f 125/1/60 150/1/60 92/1/60 83/1/60
f 88/1/25 130/1/25 151/1/25
f 77/1/61 88/1/61 151/1/61 118/1/61
f 118/1/62 151/1/62 87/1/62 76/1/62
f 90/1/25 133/1/25 152/1/25
f 80/1/63 90/1/63 152/1/63 121/1/63
f 121/1/64 152/1/64 140/1/64 79/1/64
f 92/1/25 136/1/25 153/1/25
f 83/1/65 92/1/65 153/1/65 124/1/65
f 124/1/66 153/1/66 139/1/66 82/1/66
f 86/1/11 129/1/11 155/1/11
f 92/1/3 137/1/3 161/1/3
f 93/1/3 162/1/3 137/1/3
f 87/1/2 130/1/2 156/1/2
f 85/1/8 128/1/8 154/1/8
f 93/1/7 138/1/7 162/1/7
f 88/1/6 131/1/6 157/1/6
f 87/1/11 156/1/11 129/1/11
f 89/1/10 132/1/10 158/1/10
f 88/1/2 157/1/2 130/1/2
f 90/1/1 159/1/1 133/1/1
f 89/1/6 158/1/6 131/1/6
f 91/1/9 135/1/9 160/1/9
f 140/1/10 164/1/10 132/1/10
f 140/1/1 133/1/1 164/1/1
f 92/1/12 161/1/12 136/1/12
f 86/1/8 155/1/8 128/1/8
f 90/1/5 134/1/5 159/1/5
f 139/1/12 136/1/12 163/1/12
f 141/1/7 165/1/7 138/1/7
f 91/1/5 160/1/5 134/1/5
f 139/1/9 163/1/9 135/1/9
f 85/1/4 154/1/4 127/1/4
f 141/1/4 127/1/4 165/1/4
f 154/1/4 165/1/4 127/1/4
f 154/1/8 128/1/8 155/1/8
f 155/1/11 129/1/11 156/1/11
f 156/1/2 130/1/2 157/1/2
f 157/1/6 131/1/6 158/1/6
f 158/1/10 132/1/10 164/1/10
f 159/1/1 164/1/1 133/1/1
f 159/1/5 134/1/5 160/1/5
f 160/1/9 135/1/9 163/1/9
f 161/1/12 163/1/12 136/1/12
f 161/1/3 137/1/3 162/1/3
f 162/1/7 138/1/7 165/1/7
f 161/1/38 162/1/38 170/1/38 171/1/38
f 165/1/38 154/1/38 106/1/38 167/1/38
f 164/1/38 159/1/38 173/1/38 168/1/38
f 161/1/38 171/1/38 169/1/38 163/1/38
f 155/1/38 177/1/38 106/1/38 154/1/38
f 157/1/38 175/1/38 176/1/38 156/1/38
f 160/1/38 172/1/38 173/1/38 159/1/38
f 158/1/38 174/1/38 175/1/38 157/1/38
f 163/1/38 169/1/38 172/1/38 160/1/38
f 164/1/38 168/1/38 174/1/38 158/1/38
f 162/1/38 165/1/38 167/1/38 170/1/38
f 156/1/38 176/1/38 177/1/38 155/1/38
f 104/1/38 94/1/38 98/1/38
f 168/1/10 104/1/10 98/1/10 174/1/10
f 170/1/7 167/1/7 105/1/7 102/1/7
f 171/1/12 101/1/12 103/1/12 169/1/12
f 167/1/4 106/1/4 166/1/4 105/1/4
f 175/1/2 97/1/2 96/1/2 176/1/2
f 177/1/8 95/1/8 166/1/8 106/1/8
f 103/1/38 94/1/38 100/1/38
f 102/1/38 105/1/38 94/1/38
f 95/1/38 94/1/38 166/1/38
f 104/1/38 99/1/38 94/1/38
f 105/1/38 166/1/38 94/1/38
f 7/1/25 178/1/25 8/1/25
f 4/1/25 178/1/25 5/1/25
f 11/1/25 178/1/25 12/1/25
f 1/1/25 178/1/25 2/1/25
f 8/1/25 178/1/25 9/1/25
f 5/1/25 178/1/25 6/1/25
f 12/1/25 178/1/25 1/1/25
f 2/1/25 178/1/25 3/1/25
f 9/1/25 178/1/25 10/1/25
f 6/1/25 178/1/25 7/1/25
f 3/1/25 178/1/25 4/1/25
f 10/1/25 178/1/25 11/1/25
