# Blender 4.2.1 LTS
# www.blender.org
mtllib 5Bit.mtl
o 5Bit
v 0.000000 0.350000 -0.200000
v 0.000000 0.188197 -0.117557
v 0.000000 0.159789 -0.061803
v 0.100000 0.350000 -0.173205
v 0.095106 0.288197 -0.164728
v 0.080902 0.232443 -0.140126
v 0.058779 0.188197 -0.101807
v 0.030902 0.159789 -0.053523
v 0.173205 0.350000 -0.100000
v 0.164728 0.288197 -0.095106
v 0.140126 0.232443 -0.080902
v 0.101807 0.188197 -0.058779
v 0.053523 0.159789 -0.030902
v 0.200000 0.350000 0.000000
v 0.190211 0.288197 0.000000
v 0.161803 0.232443 0.000000
v 0.117557 0.188197 0.000000
v 0.061803 0.159789 0.000000
v 0.173205 0.350000 0.100000
v 0.164728 0.288197 0.095106
v 0.140126 0.232443 0.080902
v 0.101807 0.188197 0.058779
v 0.053523 0.159789 0.030902
v 0.100000 0.350000 0.173205
v 0.095106 0.288197 0.164728
v 0.080902 0.232443 0.140126
v 0.058779 0.188197 0.101807
v 0.030902 0.159789 0.053523
v -0.000000 0.350000 0.200000
v -0.000000 0.288197 0.190211
v -0.000000 0.232443 0.161803
v -0.000000 0.188197 0.117557
v -0.000000 0.159789 0.061803
v -0.100000 0.350000 0.173205
v -0.095106 0.288197 0.164728
v -0.080902 0.232443 0.140126
v -0.058779 0.188197 0.101807
v -0.030902 0.159789 0.053523
v 0.000000 0.150000 0.000000
v -0.173205 0.350000 0.100000
v -0.164728 0.288197 0.095106
v -0.140126 0.232443 0.080902
v -0.101807 0.188197 0.058779
v -0.053523 0.159789 0.030902
v -0.200000 0.350000 -0.000000
v -0.190211 0.288197 0.000000
v -0.161803 0.232443 0.000000
v -0.117557 0.188197 -0.000000
v -0.061803 0.159789 -0.000000
v -0.173205 0.350000 -0.100000
v -0.164728 0.288197 -0.095106
v -0.140126 0.232443 -0.080902
v -0.101807 0.188197 -0.058779
v -0.053523 0.159789 -0.030902
v -0.100000 0.350000 -0.173205
v -0.095106 0.288197 -0.164728
v -0.080902 0.232443 -0.140126
v -0.058778 0.188197 -0.101807
v -0.030902 0.159789 -0.053523
v 0.000000 0.288197 -0.190211
v 0.000000 0.232443 -0.161803
v -0.100000 0.380000 -0.173205
v -0.173205 0.380000 -0.100000
v -0.200000 0.380000 -0.000000
v -0.173205 0.380000 0.100000
v -0.100000 0.380000 0.173205
v -0.000000 0.380000 0.200000
v 0.100000 0.380000 0.173205
v 0.173205 0.380000 0.100000
v 0.200000 0.380000 0.000000
v 0.173205 0.380000 -0.100000
v 0.100000 0.380000 -0.173205
v 0.000000 0.380000 -0.200000
v -0.160000 0.747025 -0.277128
v -0.277128 0.747025 -0.160000
v -0.320000 0.747025 -0.000000
v -0.277128 0.747025 0.160000
v -0.160000 0.747025 0.277128
v -0.000000 0.747025 0.320000
v 0.160000 0.747025 0.277128
v 0.277128 0.747025 0.160000
v 0.320000 0.747025 0.000000
v 0.277128 0.747025 -0.160000
v 0.160000 0.747025 -0.277128
v -0.000000 0.747025 -0.320000
v -0.160000 1.147025 -0.277128
v -0.277128 1.147025 -0.160000
v -0.320000 1.147025 -0.000000
v -0.277128 1.147025 0.160000
v -0.160000 1.147025 0.277128
v -0.000000 1.147025 0.320000
v 0.160000 1.147025 0.277128
v 0.277128 1.147025 0.160000
v 0.320000 1.147025 0.000000
v 0.277128 1.147025 -0.160000
v 0.160000 1.147025 -0.277128
v -0.000000 1.147025 -0.320000
v -0.224000 1.147025 -0.387979
v -0.387979 1.147025 -0.224000
v -0.448000 1.147025 -0.000000
v -0.387979 1.147025 0.224000
v -0.224000 1.147025 0.387979
v -0.000000 1.147025 0.448000
v 0.224000 1.147025 0.387979
v 0.387979 1.147025 0.224000
v 0.448000 1.147025 0.000000
v 0.387979 1.147025 -0.224000
v 0.224000 1.147025 -0.387979
v -0.000000 1.147025 -0.448000
v -0.224000 1.297025 -0.387979
v -0.387979 1.297025 -0.224000
v -0.448000 1.297025 -0.000000
v -0.387979 1.297025 0.224000
v -0.224000 1.297025 0.387979
v -0.000000 1.297025 0.448000
v 0.224000 1.297025 0.387979
v 0.387979 1.297025 0.224000
v 0.448000 1.297025 0.000000
v 0.387979 1.297025 -0.224000
v 0.224000 1.297025 -0.387979
v -0.000000 1.297025 -0.448000
v -0.063616 1.297025 -0.110186
v -0.110186 1.297025 -0.063616
v -0.110186 1.297025 0.063616
v -0.063616 1.297025 0.110186
v 0.063616 1.297025 0.110186
v 0.110186 1.297025 0.063616
v 0.110186 1.297025 -0.063616
v 0.063616 1.297025 -0.110186
v -0.063616 2.376786 -0.110186
v -0.110186 2.376786 -0.063616
v -0.110186 2.376786 0.063616
v -0.063616 2.376786 0.110186
v 0.063616 2.376786 0.110186
v 0.110186 2.376786 0.063616
v 0.110186 2.376786 -0.063616
v 0.063616 2.376786 -0.110186
v 0.000000 2.376786 0.000000
v 0.264995 1.184530 0.346985
v 0.346984 1.184525 0.264995
v 0.264995 1.259525 0.346985
v 0.346984 1.259525 0.264995
v 0.264995 1.184525 -0.346985
v 0.346985 1.184525 -0.264995
v 0.264995 1.259525 -0.346985
v 0.346985 1.259525 -0.264995
v -0.264995 1.184525 -0.346985
v -0.346984 1.184525 -0.264995
v -0.264995 1.259525 -0.346985
v -0.346984 1.259525 -0.264995
v -0.264995 1.184525 0.346984
v -0.346985 1.184525 0.264995
v -0.264995 1.259525 0.346984
v -0.346985 1.259525 0.264995
v 0.618548 1.184525 0.700538
v 0.700538 1.184525 0.618548
v 0.618548 1.259530 0.700538
v 0.700538 1.259525 0.618548
v 0.618548 1.184525 -0.700538
v 0.700538 1.184525 -0.618548
v 0.618548 1.259525 -0.700538
v 0.700538 1.259525 -0.618548
v -0.700538 1.184525 -0.618548
v -0.618548 1.259525 -0.700538
v -0.700538 1.259525 -0.618548
v -0.618548 1.259525 0.700538
v -0.000000 1.184530 -0.970000
v -0.485000 1.184530 -0.840045
v -0.840045 1.184530 -0.485000
v -0.970000 1.184530 0.000000
v -0.840045 1.184530 0.485000
v -0.485000 1.184530 0.840045
v -0.000000 1.184530 0.970000
v 0.485000 1.184530 0.840045
v 0.840045 1.184530 0.485000
v 0.970000 1.184530 0.000000
v 0.840045 1.184530 -0.485000
v 0.485000 1.184530 -0.840045
v -0.000000 1.259530 -0.970000
v -0.485000 1.259530 -0.840045
v -0.840045 1.259530 -0.485000
v -0.970000 1.259530 0.000000
v -0.840045 1.259530 0.485000
v -0.485000 1.259530 0.840045
v -0.000000 1.259530 0.970000
v 0.485000 1.259530 0.840045
v 0.840045 1.259530 0.485000
v 0.970000 1.259530 0.000000
v 0.840045 1.259530 -0.485000
v 0.485000 1.259530 -0.840045
v -0.621100 1.184530 -0.703944
v -0.622284 1.184530 0.702761
v -0.702761 1.184530 0.622284
v -0.702761 1.259530 0.622284
v -0.557710 1.184530 -0.966075
v 0.000040 1.184530 -1.115524
v -1.115460 1.184530 -0.000024
v -0.966011 1.184530 -0.557774
v -0.966011 1.184530 0.557727
v 0.000040 1.184530 1.115477
v -0.557710 1.184530 0.966028
v 0.557790 1.184530 0.966028
v 1.115541 1.184530 -0.000024
v 0.966092 1.184530 0.557727
v 0.966092 1.184530 -0.557774
v 0.557790 1.184530 -0.966075
v -0.557710 1.259530 -0.966075
v 0.000040 1.259530 -1.115524
v -1.115460 1.259530 -0.000024
v -0.966011 1.259530 -0.557774
v -0.966011 1.259530 0.557727
v 0.000040 1.259530 1.115477
v -0.557710 1.259530 0.966028
v 0.557790 1.259530 0.966028
v 1.115541 1.259530 -0.000024
v 0.966092 1.259530 0.557727
v 0.966092 1.259530 -0.557774
v 0.557790 1.259530 -0.966075
v 0.154261 1.297025 0.089062
v 0.089062 1.297025 -0.154261
v -0.154261 1.297025 0.089062
v -0.089062 2.376786 -0.154261
v -0.154261 2.376786 -0.089062
v 0.089062 2.376786 0.154261
v 0.154261 2.376786 0.089062
v 0.089062 2.376786 -0.154261
v 0.154261 2.376786 -0.089062
v -0.089062 2.376786 0.154261
v -0.154261 2.376786 0.089062
v -0.178125 1.297025 -0.000000
v -0.154261 1.297025 -0.089062
v -0.089062 1.297025 -0.154261
v 0.000000 1.297025 -0.178125
v -0.000000 1.297025 0.178125
v -0.089062 1.297025 0.154261
v 0.154261 1.297025 -0.089062
v 0.089062 1.297025 0.154261
v 0.178125 1.297025 0.000000
vn 0.2558 -0.1512 -0.9548
vn 0.0419 -0.9868 -0.1563
vn 0.2322 -0.4416 -0.8666
vn 0.1862 -0.6947 -0.6947
vn 0.1208 -0.8845 -0.4507
vn 0.6990 -0.1512 -0.6990
vn 0.1144 -0.9868 -0.1144
vn 0.6344 -0.4416 -0.6344
vn 0.5086 -0.6947 -0.5086
vn 0.3299 -0.8845 -0.3299
vn 0.4507 -0.8845 -0.1208
vn 0.9548 -0.1512 -0.2558
vn 0.1563 -0.9868 -0.0419
vn 0.8666 -0.4416 -0.2322
vn 0.6947 -0.6947 -0.1862
vn 0.4507 -0.8845 0.1208
vn 0.9548 -0.1512 0.2558
vn 0.1563 -0.9868 0.0419
vn 0.8666 -0.4416 0.2322
vn 0.6947 -0.6947 0.1862
vn 0.5086 -0.6947 0.5086
vn 0.3299 -0.8845 0.3299
vn 0.6990 -0.1512 0.6990
vn 0.1144 -0.9868 0.1144
vn 0.6344 -0.4416 0.6344
vn 0.2322 -0.4416 0.8666
vn 0.1862 -0.6947 0.6947
vn 0.1208 -0.8845 0.4507
vn 0.2558 -0.1512 0.9548
vn 0.0419 -0.9868 0.1563
vn -0.0419 -0.9868 0.1563
vn -0.2322 -0.4416 0.8666
vn -0.1862 -0.6947 0.6947
vn -0.1208 -0.8845 0.4507
vn -0.2558 -0.1512 0.9548
vn -0.6990 -0.1512 0.6990
vn -0.1144 -0.9868 0.1144
vn -0.6344 -0.4416 0.6344
vn -0.5086 -0.6947 0.5086
vn -0.3299 -0.8845 0.3299
vn -0.4507 -0.8845 0.1208
vn -0.9548 -0.1512 0.2558
vn -0.1563 -0.9868 0.0419
vn -0.8666 -0.4416 0.2322
vn -0.6947 -0.6947 0.1862
vn -0.6947 -0.6947 -0.1862
vn -0.4507 -0.8845 -0.1208
vn -0.9548 -0.1512 -0.2558
vn -0.1563 -0.9868 -0.0419
vn -0.8666 -0.4416 -0.2322
vn -0.5086 -0.6947 -0.5086
vn -0.3299 -0.8845 -0.3299
vn -0.6990 -0.1512 -0.6990
vn -0.1144 -0.9868 -0.1144
vn -0.6344 -0.4416 -0.6344
vn -0.2322 -0.4416 -0.8666
vn -0.1862 -0.6947 -0.6947
vn -0.1208 -0.8845 -0.4507
vn -0.2558 -0.1512 -0.9548
vn -0.0419 -0.9868 -0.1563
vn 0.9659 -0.0000 -0.2588
vn -0.7071 -0.0000 -0.7071
vn -0.9659 -0.0000 -0.2588
vn -0.7071 -0.0000 0.7071
vn 0.7071 -0.0000 -0.7071
vn 0.2588 -0.0000 -0.9659
vn -0.2588 -0.0000 -0.9659
vn -0.2588 -0.0000 0.9659
vn 0.7071 -0.0000 0.7071
vn -0.9659 -0.0000 0.2588
vn 0.2588 -0.0000 0.9659
vn 0.9659 -0.0000 0.2588
vn -0.9211 -0.3012 -0.2468
vn -0.2468 -0.3012 0.9211
vn -0.6743 -0.3012 0.6743
vn 0.6743 -0.3012 0.6743
vn 0.6743 -0.3012 -0.6743
vn -0.6743 -0.3012 -0.6743
vn -0.2468 -0.3012 -0.9211
vn 0.2468 -0.3012 0.9211
vn 0.9211 -0.3012 -0.2468
vn 0.2468 -0.3012 -0.9211
vn -0.9211 -0.3012 0.2468
vn 0.9211 -0.3012 0.2468
vn -0.0000 -1.0000 -0.0000
vn 0.8660 -0.0000 -0.5000
vn -0.0000 1.0000 -0.0000
vn -0.5000 -0.0000 0.8660
vn 0.7075 0.0040 -0.7067
vn 0.7063 -0.0071 0.7078
vn -0.7086 -0.0000 -0.7056
vn 0.6915 -0.0000 0.7224
vn 0.7145 -0.0282 -0.6991
vn -0.7224 -0.0000 -0.6915
vn -0.7224 -0.0000 0.6915
vn 0.7145 -0.0280 0.6991
vn -0.6915 -0.0000 -0.7224
vn -0.6915 -0.0000 0.7224
vn -0.8660 -0.0000 -0.5000
vn 0.5000 -0.0000 0.8660
vn -0.5000 -0.0000 -0.8660
vn 0.5000 -0.0000 -0.8660
vn -0.8660 -0.0000 0.5000
vn 0.8660 -0.0000 0.5000
vn 1.0000 -0.0000 -0.0000
vn -0.0000 -0.0000 -1.0000
vn -1.0000 -0.0000 -0.0000
vn -0.0000 -0.0000 1.0000
vt 0.750000 0.400000
vt 0.750000 0.500000
vt 0.666667 0.500000
vt 0.666667 0.400000
vt 0.708333 0.000000
vt 0.750000 0.100000
vt 0.666667 0.100000
vt 0.750000 0.300000
vt 0.666667 0.300000
vt 0.750000 0.200000
vt 0.666667 0.200000
vt 0.583333 0.500000
vt 0.583333 0.400000
vt 0.625000 0.000000
vt 0.583333 0.100000
vt 0.583333 0.300000
vt 0.583333 0.200000
vt 0.500000 0.200000
vt 0.500000 0.100000
vt 0.500000 0.500000
vt 0.500000 0.400000
vt 0.541667 0.000000
vt 0.500000 0.300000
vt 0.416667 0.200000
vt 0.416667 0.100000
vt 0.416667 0.500000
vt 0.416667 0.400000
vt 0.458333 0.000000
vt 0.416667 0.300000
vt 0.333333 0.300000
vt 0.333333 0.200000
vt 0.333333 0.100000
vt 0.333333 0.500000
vt 0.333333 0.400000
vt 0.375000 0.000000
vt 0.250000 0.400000
vt 0.250000 0.300000
vt 0.250000 0.200000
vt 0.250000 0.100000
vt 0.250000 0.500000
vt 0.291667 0.000000
vt 0.208333 0.000000
vt 0.166667 0.100000
vt 0.166667 0.400000
vt 0.166667 0.300000
vt 0.166667 0.200000
vt 0.166667 0.500000
vt 0.083333 0.500000
vt 0.083333 0.400000
vt 0.125000 0.000000
vt 0.083333 0.100000
vt 0.083333 0.300000
vt 0.083333 0.200000
vt 0.000000 0.200000
vt 0.000000 0.100000
vt 0.000000 0.500000
vt 0.000000 0.400000
vt 0.041667 0.000000
vt 0.000000 0.300000
vt 1.000000 0.200000
vt 1.000000 0.300000
vt 0.916667 0.300000
vt 0.916667 0.200000
vt 1.000000 0.100000
vt 0.916667 0.100000
vt 1.000000 0.400000
vt 1.000000 0.500000
vt 0.916667 0.500000
vt 0.916667 0.400000
vt 0.958333 0.000000
vt 0.833333 0.300000
vt 0.833333 0.200000
vt 0.833333 0.100000
vt 0.833333 0.500000
vt 0.833333 0.400000
vt 0.875000 0.000000
vt 0.791667 0.000000
vt 0.000000 0.000000
vt 0.416667 0.500000
vt 0.583333 0.500000
vt 0.250000 0.500000
vt 1.000000 0.500000
s 0
usemtl Yellow
f 60/1/1 1/2/1 4/3/1 5/4/1
f 39/5/2 3/6/2 8/7/2
f 61/8/3 60/1/3 5/4/3 6/9/3
f 2/10/4 61/8/4 6/9/4 7/11/4
f 3/6/5 2/10/5 7/11/5 8/7/5
f 5/4/6 4/3/6 9/12/6 10/13/6
f 39/14/7 8/7/7 13/15/7
f 6/9/8 5/4/8 10/13/8 11/16/8
f 7/11/9 6/9/9 11/16/9 12/17/9
f 8/7/10 7/11/10 12/17/10 13/15/10
f 13/15/11 12/17/11 17/18/11 18/19/11
f 10/13/12 9/12/12 14/20/12 15/21/12
f 39/22/13 13/15/13 18/19/13
f 11/16/14 10/13/14 15/21/14 16/23/14
f 12/17/15 11/16/15 16/23/15 17/18/15
f 18/19/16 17/18/16 22/24/16 23/25/16
f 15/21/17 14/20/17 19/26/17 20/27/17
f 39/28/18 18/19/18 23/25/18
f 16/23/19 15/21/19 20/27/19 21/29/19
f 17/18/20 16/23/20 21/29/20 22/24/20
f 22/24/21 21/29/21 26/30/21 27/31/21
f 23/25/22 22/24/22 27/31/22 28/32/22
f 20/27/23 19/26/23 24/33/23 25/34/23
f 39/35/24 23/25/24 28/32/24
f 21/29/25 20/27/25 25/34/25 26/30/25
f 26/30/26 25/34/26 30/36/26 31/37/26
f 27/31/27 26/30/27 31/37/27 32/38/27
f 28/32/28 27/31/28 32/38/28 33/39/28
f 25/34/29 24/33/29 29/40/29 30/36/29
f 39/41/30 28/32/30 33/39/30
f 39/42/31 33/39/31 38/43/31
f 31/37/32 30/36/32 35/44/32 36/45/32
f 32/38/33 31/37/33 36/45/33 37/46/33
f 33/39/34 32/38/34 37/46/34 38/43/34
f 30/36/35 29/40/35 34/47/35 35/44/35
f 35/44/36 34/47/36 40/48/36 41/49/36
f 39/50/37 38/43/37 44/51/37
f 36/45/38 35/44/38 41/49/38 42/52/38
f 37/46/39 36/45/39 42/52/39 43/53/39
f 38/43/40 37/46/40 43/53/40 44/51/40
f 44/51/41 43/53/41 48/54/41 49/55/41
f 41/49/42 40/48/42 45/56/42 46/57/42
f 39/58/43 44/51/43 49/55/43
f 42/52/44 41/49/44 46/57/44 47/59/44
f 43/53/45 42/52/45 47/59/45 48/54/45
f 48/60/46 47/61/46 52/62/46 53/63/46
f 49/64/47 48/60/47 53/63/47 54/65/47
f 46/66/48 45/67/48 50/68/48 51/69/48
f 39/70/49 49/64/49 54/65/49
f 47/61/50 46/66/50 51/69/50 52/62/50
f 53/63/51 52/62/51 57/71/51 58/72/51
f 54/65/52 53/63/52 58/72/52 59/73/52
f 51/69/53 50/68/53 55/74/53 56/75/53
f 39/76/54 54/65/54 59/73/54
f 52/62/55 51/69/55 56/75/55 57/71/55
f 57/71/56 56/75/56 60/1/56 61/8/56
f 58/72/57 57/71/57 61/8/57 2/10/57
f 59/73/58 58/72/58 2/10/58 3/6/58
f 56/75/59 55/74/59 1/2/59 60/1/59
f 39/77/60 59/73/60 3/6/60
f 14/20/61 9/12/61 71/12/61 70/20/61
f 55/74/62 50/68/62 63/68/62 62/74/62
f 50/68/63 45/67/63 64/67/63 63/68/63
f 40/48/64 34/47/64 66/47/64 65/48/64
f 9/12/65 4/3/65 72/3/65 71/12/65
f 4/3/66 1/2/66 73/2/66 72/3/66
f 1/2/67 55/74/67 62/74/67 73/2/67
f 34/47/68 29/40/68 67/40/68 66/47/68
f 24/33/69 19/26/69 69/26/69 68/33/69
f 45/56/70 40/48/70 65/48/70 64/56/70
f 29/40/71 24/33/71 68/33/71 67/40/71
f 19/26/72 14/20/72 70/20/72 69/26/72
f 63/68/73 64/67/73 76/67/73 75/68/73
f 66/47/74 67/40/74 79/40/74 78/47/74
f 65/48/75 66/47/75 78/47/75 77/48/75
f 68/33/76 69/26/76 81/26/76 80/33/76
f 71/12/77 72/3/77 84/3/77 83/12/77
f 62/74/78 63/68/78 75/68/78 74/74/78
f 73/2/79 62/74/79 74/74/79 85/2/79
f 67/40/80 68/33/80 80/33/80 79/40/80
f 70/20/81 71/12/81 83/12/81 82/20/81
f 72/3/82 73/2/82 85/2/82 84/3/82
f 64/56/83 65/48/83 77/48/83 76/56/83
f 69/26/84 70/20/84 82/20/84 81/26/84
f 82/20/61 83/12/61 95/12/61 94/20/61
f 81/26/72 82/20/72 94/20/72 93/26/72
f 76/56/70 77/48/70 89/48/70 88/56/70
f 75/68/63 76/67/63 88/67/63 87/68/63
f 85/2/67 74/74/67 86/74/67 97/2/67
f 78/47/68 79/40/68 91/40/68 90/47/68
f 77/48/64 78/47/64 90/47/64 89/48/64
f 83/12/65 84/3/65 96/3/65 95/12/65
f 80/33/69 81/26/69 93/26/69 92/33/69
f 79/40/71 80/33/71 92/33/71 91/40/71
f 74/74/62 75/68/62 87/68/62 86/74/62
f 84/3/66 85/2/66 97/2/66 96/3/66
f 94/20/85 95/12/85 107/12/85 106/20/85
f 93/26/85 94/20/85 106/20/85 105/26/85
f 88/56/85 89/48/85 101/48/85 100/56/85
f 87/68/85 88/67/85 100/67/85 99/68/85
f 97/2/85 86/74/85 98/74/85 109/2/85
f 90/47/85 91/40/85 103/40/85 102/47/85
f 89/48/85 90/47/85 102/47/85 101/48/85
f 95/12/85 96/3/85 108/3/85 107/12/85
f 92/33/85 93/26/85 105/26/85 104/33/85
f 91/40/85 92/33/85 104/33/85 103/40/85
f 86/74/85 87/68/85 99/68/85 98/74/85
f 96/3/85 97/2/85 109/2/85 108/3/85
f 102/47/68 103/40/68 115/40/68 114/47/68
f 102/47/64 114/47/64 153/47/64 151/47/64
f 120/3/65 119/12/65 146/12/65 145/3/65
f 105/26/69 117/26/69 142/26/69 140/26/69
f 103/40/71 104/33/71 116/33/71 115/40/71
f 99/68/62 111/68/62 150/68/62 148/68/62
f 108/3/66 109/2/66 121/2/66 120/3/66
f 106/20/61 107/12/61 119/12/61 118/20/61
f 105/26/72 106/20/72 118/20/72 117/26/72
f 100/56/70 101/48/70 113/48/70 112/56/70
f 99/68/63 100/67/63 112/67/63 111/68/63
f 109/2/67 98/74/67 110/74/67 121/2/67
f 130/74/86 122/74/86 232/74/86 222/74/86
f 135/26/87 134/33/87 224/33/87 225/26/87
f 123/68/88 131/68/88 223/68/88 231/68/88
f 133/47/87 132/48/87 229/48/87 228/47/87
f 136/12/87 137/3/87 138/12/87
f 134/33/87 135/26/87 138/33/87
f 130/74/87 131/68/87 138/74/87
f 132/48/87 133/47/87 138/48/87
f 140/26/65 142/26/65 158/26/65 156/26/65
f 116/33/69 104/33/69 139/33/69 141/33/69
f 117/26/69 116/33/69 141/33/69 142/26/69
f 104/33/69 105/26/69 140/26/69 139/33/69
f 146/12/69 144/12/69 160/12/69 162/12/69
f 107/12/65 108/3/65 143/3/65 144/12/65
f 108/3/65 120/3/65 145/3/65 143/3/65
f 119/12/65 107/12/65 144/12/65 146/12/65
f 149/74/89 147/74/89 191/74/89 164/74/89
f 111/68/62 110/74/62 149/74/62 150/68/62
f 98/74/62 99/68/62 148/68/62 147/74/62
f 110/74/62 98/74/62 147/74/62 149/74/62
f 151/47/90 153/47/90 166/47/90 192/47/90
f 114/47/64 113/48/64 154/48/64 153/47/64
f 101/48/64 102/47/64 151/47/64 152/48/64
f 113/48/64 101/48/64 152/48/64 154/48/64
f 191/74/85 163/68/85 169/78/85 198/78/85 195/78/85 168/78/85
f 139/33/85 140/26/85 156/26/85 155/33/85
f 141/33/64 139/33/64 155/33/64 157/33/64
f 142/26/87 141/33/87 157/33/87 158/26/87
f 173/78/85 174/78/85 202/78/85 200/78/85
f 145/3/87 146/12/87 162/12/87 161/3/87
f 143/3/62 145/3/62 161/3/62 159/3/62
f 144/12/85 143/3/85 159/3/85 160/12/85
f 150/68/87 149/74/87 164/74/87 165/68/87
f 148/68/64 150/68/64 165/68/64 163/68/64
f 147/74/85 148/68/85 163/68/85 191/74/85
f 159/78/85 178/78/85 206/78/85 205/78/85 177/78/85 160/78/85
f 152/48/85 151/47/85 192/47/85 193/48/85
f 154/48/91 152/48/91 193/48/91 194/48/91
f 153/47/87 154/48/87 194/48/87 166/47/87
f 172/78/85 173/78/85 200/78/85 201/78/85
f 157/78/87 186/78/87 214/78/87 216/78/87 187/78/87 158/78/87
f 179/78/87 190/78/87 218/78/87 208/78/87
f 171/78/85 193/48/85 192/78/85 172/78/85 201/78/85 199/78/85
f 189/78/87 188/78/87 215/78/87 217/78/87
f 170/78/85 171/78/85 199/78/85 197/78/85
f 188/78/87 187/78/87 216/78/87 215/78/87
f 169/78/85 170/78/85 197/78/85 198/78/85
f 186/78/87 185/78/87 212/78/87 214/78/87
f 195/78/62 198/78/62 210/78/62 207/78/62
f 208/78/66 218/78/66 206/78/66 196/78/66
f 217/78/61 215/78/61 203/78/61 205/78/61
f 215/78/72 216/78/72 204/78/72 203/78/72
f 214/78/71 212/78/71 200/78/71 202/78/71
f 212/78/68 213/78/68 201/78/68 200/78/68
f 211/78/70 209/78/70 197/78/70 199/78/70
f 209/78/63 210/78/63 198/78/63 197/78/63
f 207/78/67 208/78/67 196/78/67 195/78/67
f 194/48/87 183/78/87 211/78/87 213/78/87 184/78/87 166/47/87
f 175/78/85 176/78/85 203/78/85 204/78/85
f 164/78/87 180/78/87 207/78/87 210/78/87 181/78/87 165/78/87
f 176/78/85 177/78/85 205/78/85 203/78/85
f 178/78/85 167/78/85 196/78/85 206/78/85
f 180/78/87 179/78/87 208/78/87 207/78/87
f 201/78/64 213/78/64 211/78/64 199/78/64
f 182/78/87 181/78/87 210/78/87 209/78/87
f 204/78/69 216/78/69 214/78/69 202/78/69
f 183/78/87 182/78/87 209/78/87 211/78/87
f 206/78/65 218/78/65 217/78/65 205/78/65
f 167/78/85 168/78/85 195/78/85 196/78/85
f 162/78/87 189/78/87 217/78/87 218/78/87 190/78/87 161/78/87
f 185/78/87 184/78/87 213/78/87 212/78/87
f 165/78/92 181/78/92 169/78/92 163/78/92
f 181/78/72 182/78/72 170/78/72 169/78/72
f 182/78/61 183/78/61 171/78/61 170/78/61
f 183/78/65 194/78/65 193/78/65 171/78/65
f 166/78/93 184/78/93 172/78/93 192/78/93
f 184/78/66 185/78/66 173/78/66 172/78/66
f 185/78/67 186/78/67 174/78/67 173/78/67
f 186/78/94 157/78/94 155/78/94 174/78/94
f 161/78/95 190/78/95 178/78/95 159/78/95
f 190/78/68 179/78/68 167/78/68 178/78/68
f 179/78/71 180/78/71 168/78/71 167/78/71
f 180/78/96 164/78/96 191/78/96 168/78/96
f 158/78/97 187/78/97 175/78/97 156/78/97
f 187/78/63 188/78/63 176/78/63 175/78/63
f 188/78/70 189/78/70 177/78/70 176/78/70
f 189/78/98 162/78/98 160/78/98 177/78/98
f 155/78/85 156/78/85 175/78/85 204/78/85 202/78/85 174/78/85
f 236/12/65 220/3/65 226/3/65 227/12/65
f 237/33/69 219/26/69 225/26/69 224/33/69
f 232/74/62 231/68/62 223/68/62 222/74/62
f 221/48/64 235/47/64 228/47/64 229/48/64
f 129/3/99 137/3/99 226/3/99 220/3/99
f 136/12/100 128/12/100 236/12/100 227/12/100
f 137/3/87 136/12/87 227/12/87 226/3/87
f 132/48/101 124/48/101 221/48/101 229/48/101
f 127/26/102 135/26/102 225/26/102 219/26/102
f 131/68/87 130/74/87 222/74/87 223/68/87
f 134/33/103 126/33/103 237/33/103 224/33/103
f 125/47/104 133/47/104 228/47/104 235/47/104
f 112/56/87 113/48/87 221/48/87 230/56/87
f 117/26/87 118/20/87 238/20/87 219/79/87
f 118/20/87 119/12/87 236/80/87 238/20/87
f 120/3/87 121/2/87 233/2/87 220/3/87
f 110/74/87 111/68/87 231/68/87 232/74/87
f 115/40/87 116/33/87 237/33/87 234/81/87
f 116/33/87 117/26/87 219/79/87 237/33/87
f 119/12/87 120/3/87 220/3/87 236/80/87
f 113/48/87 114/47/87 235/47/87 221/48/87
f 114/47/87 115/40/87 234/81/87 235/47/87
f 121/2/87 110/74/87 232/74/87 233/2/87
f 111/68/87 112/67/87 230/82/87 231/68/87
f 219/79/87 238/20/87 236/80/87 128/12/87 127/26/87
f 136/12/105 135/26/105 127/26/105 128/12/105
f 138/33/87 135/26/87 136/12/87
f 138/12/87 137/3/87 130/74/87
f 138/48/87 131/68/87 132/48/87
f 134/33/87 138/48/87 133/47/87
f 129/3/106 122/74/106 130/74/106 137/3/106
f 232/74/87 122/74/87 129/3/87 220/3/87 233/2/87
f 124/48/87 123/68/87 231/68/87 230/82/87 221/48/87
f 131/68/107 123/68/107 124/48/107 132/48/107
f 235/47/87 234/81/87 237/33/87 126/33/87 125/47/87
f 126/33/108 134/33/108 133/47/108 125/47/108
