# Blender 4.2.1 LTS
# www.blender.org
mtllib 6Bit.mtl
o 6Bit
v -0.000000 0.000000 0.000000
v 0.311769 0.360000 -0.180000
v 0.360000 0.360000 -0.000000
v 0.311769 0.360000 0.180000
v 0.180000 0.360000 0.311769
v -0.180000 0.360000 0.311769
v -0.360000 0.360000 -0.000000
v -0.311769 0.360000 -0.180000
v -0.000000 0.360000 -0.360000
v -0.000000 0.200000 -0.150000
v -0.075000 0.200000 -0.129904
v -0.129904 0.200000 -0.075000
v -0.129904 0.200000 0.075000
v -0.075000 0.200000 0.129904
v 0.075000 0.200000 0.129904
v 0.129904 0.200000 0.075000
v 0.075000 0.200000 -0.129904
v 0.436477 0.990000 -0.252000
v 0.252000 0.990000 0.436477
v 0.000000 0.990000 0.504000
v -0.252000 0.990000 0.436477
v -0.436477 0.990000 0.252000
v -0.504000 0.990000 0.000000
v -0.436477 0.990000 -0.252000
v 0.000000 0.990000 -0.504000
v 0.252000 0.990000 -0.436477
v 1.627920 0.990000 -0.000000
v -0.000000 0.990000 1.627920
v -1.627920 0.990000 -0.000000
v -0.000000 0.990000 -1.627920
v 1.627920 1.290000 -0.000000
v -0.000000 1.290000 1.627920
v -1.627920 1.290000 -0.000000
v -0.000000 1.290000 -1.627920
v 0.703333 1.290000 -0.406069
v 0.812139 1.290000 -0.000000
v 0.703333 1.290000 0.406069
v 0.406069 1.290000 0.703333
v -0.000000 1.290000 0.812139
v -0.406069 1.290000 0.703333
v -0.703333 1.290000 0.406069
v -0.812139 1.290000 -0.000000
v -0.703333 1.290000 -0.406069
v -0.406069 1.290000 -0.703333
v -0.000000 1.290000 -0.812139
v 0.406069 1.290000 -0.703333
v 0.703333 1.490000 -0.406069
v 0.812139 1.490000 -0.000000
v 0.703333 1.490000 0.406069
v 0.406069 1.490000 0.703333
v -0.000000 1.490000 0.812139
v -0.406069 1.490000 0.703333
v -0.703333 1.490000 0.406069
v -0.812139 1.490000 -0.000000
v -0.703333 1.490000 -0.406069
v -0.406069 1.490000 -0.703333
v -0.000000 1.490000 -0.812139
v 0.406069 1.490000 -0.703333
v 0.351666 1.490000 -0.203035
v 0.406069 1.490000 -0.000000
v 0.351666 1.490000 0.203035
v 0.203035 1.490000 0.351666
v 0.000000 1.490000 0.406069
v -0.203035 1.490000 0.351666
v -0.351666 1.490000 0.203035
v -0.406069 1.490000 -0.000000
v -0.351666 1.490000 -0.203035
v -0.203035 1.490000 -0.351666
v 0.000000 1.490000 -0.406069
v 0.203035 1.490000 -0.351666
v 0.351666 1.694577 -0.203035
v 0.406069 1.694577 -0.000000
v 0.351666 1.694577 0.203035
v 0.203035 1.694577 0.351666
v 0.000000 1.694577 0.406069
v -0.203035 1.694577 0.351666
v -0.351666 1.694577 0.203035
v -0.406069 1.694577 -0.000000
v -0.351666 1.694577 -0.203035
v -0.203035 1.694577 -0.351666
v 0.000000 1.694577 -0.406069
v 0.203035 1.694577 -0.351666
v 0.359155 1.784889 -0.207358
v 0.414717 1.784889 0.000000
v 0.359155 1.784889 0.207358
v 0.207358 1.784889 0.359155
v 0.000000 1.784889 0.414717
v -0.207358 1.784889 0.359155
v -0.359155 1.784889 0.207358
v -0.414717 1.784889 0.000000
v -0.359155 1.784889 -0.207358
v -0.207358 1.784889 -0.359155
v 0.000000 1.784889 -0.414717
v 0.207358 1.784889 -0.359155
v 0.000000 2.084889 0.414717
v -0.207358 2.084889 0.359155
v -0.359155 2.084889 0.207358
v -0.414717 2.084889 0.000000
v 0.000000 2.084889 -0.414717
v 0.358688 2.084889 -0.207089
v 0.414178 2.084889 -0.000000
v 0.358688 2.084889 0.207089
v 0.207089 2.084889 0.358688
v -0.358688 2.084889 -0.207089
v -0.207089 2.084889 -0.358688
v 0.207089 2.084889 -0.358688
v 0.358688 2.484889 -0.207089
v 0.414178 2.484889 -0.000000
v 0.358688 2.484889 0.207089
v 0.207089 2.484889 0.358688
v 0.000000 2.484889 0.414178
v -0.207089 2.484889 0.358688
v -0.358688 2.484889 0.207089
v -0.414178 2.484889 -0.000000
v -0.358688 2.484889 -0.207089
v -0.207089 2.484889 -0.358688
v 0.000000 2.484889 -0.414178
v 0.207089 2.484889 -0.358688
v 0.000000 2.484889 -0.000000
v 0.180000 0.360000 -0.311769
v -0.000000 0.360000 0.360000
v -0.311769 0.360000 0.180000
v -0.180000 0.360000 -0.311769
v 0.504000 0.990000 0.000000
v 0.436477 0.990000 0.252000
v -0.252000 0.990000 -0.436477
v -0.090000 0.360000 -0.155885
v 0.090000 0.360000 -0.155885
v -0.150000 0.200000 0.000000
v -0.000000 0.200000 0.150000
v 0.129904 0.200000 -0.075000
v 0.150000 0.200000 0.000000
v 0.180000 0.360000 0.000000
v -0.155885 0.360000 -0.090000
v -0.000000 0.360000 -0.180000
v 0.155885 0.360000 -0.090000
v 0.155885 0.360000 0.090000
v 0.090000 0.360000 0.155885
v -0.000000 0.360000 0.180000
v -0.090000 0.360000 0.155885
v -0.155885 0.360000 0.090000
v -0.180000 0.360000 0.000000
v 0.000000 0.990000 -0.252000
v 0.126000 0.990000 -0.218238
v 0.218238 0.990000 -0.126000
v 0.252000 0.990000 0.000000
v 0.218238 0.990000 0.126000
v 0.126000 0.990000 0.218238
v 0.000000 0.990000 0.252000
v -0.126000 0.990000 0.218238
v -0.218238 0.990000 0.126000
v -0.252000 0.990000 0.000000
v -0.218238 0.990000 -0.126000
v -0.126000 0.990000 -0.218238
v 0.131973 1.784889 -0.492528
v 0.360556 1.784889 -0.360556
v 0.492528 1.784889 -0.131973
v 0.492528 1.784889 0.131973
v 0.360556 1.784889 0.360556
v 0.131973 1.784889 0.492528
v -0.131973 1.784889 0.492528
v -0.360556 1.784889 0.360556
v -0.492528 1.784889 0.131973
v -0.492528 1.784889 -0.131973
v -0.360556 1.784889 -0.360556
v -0.131973 1.784889 -0.492528
v 0.131973 2.084889 -0.492528
v 0.360556 2.084889 -0.360556
v 0.492528 2.084889 -0.131973
v 0.492528 2.084889 0.131973
v 0.360556 2.084889 0.360556
v 0.131973 2.084889 0.492528
v -0.131973 2.084889 0.492528
v -0.360556 2.084889 0.360556
v -0.492528 2.084889 0.131973
v -0.492528 2.084889 -0.131973
v -0.360556 2.084889 -0.360556
v -0.131973 2.084889 -0.492528
v 0.876708 1.057843 0.506167
v 0.881137 1.252249 0.508724
v 1.562774 1.245196 0.243128
v 1.562774 1.034805 0.243128
v 0.508724 1.252249 0.881137
v 0.506167 1.057843 0.876708
v 0.243128 1.034805 1.562774
v 0.243128 1.245196 1.562774
v 0.881137 1.252249 -0.508724
v 0.876708 1.057843 -0.506167
v 1.562774 1.034805 -0.243128
v 1.562774 1.245196 -0.243128
v -0.506167 1.057843 0.876708
v -0.508724 1.252249 0.881137
v -0.243128 1.245196 1.562774
v -0.243128 1.034805 1.562774
v -0.881137 1.252249 0.508724
v -0.876708 1.057843 0.506167
v -1.562774 1.034805 0.243128
v -1.562774 1.245196 0.243128
v -0.876708 1.057843 -0.506167
v -0.881137 1.252249 -0.508724
v -1.562774 1.245196 -0.243128
v -1.562774 1.034805 -0.243128
v -0.508724 1.252249 -0.881137
v -0.506167 1.057843 -0.876708
v -0.243128 1.034805 -1.562774
v -0.243128 1.245196 -1.562774
v 0.506167 1.057843 -0.876708
v 0.508724 1.252249 -0.881137
v 0.243128 1.245196 -1.562774
v 0.243128 1.034805 -1.562774
vn -0.5726 -0.5867 0.5726
vn 0.2096 -0.5867 -0.7822
vn -0.5726 -0.5867 -0.5726
vn 0.7822 -0.5867 0.2096
vn -0.2096 -0.5867 0.7822
vn -0.7822 -0.5867 -0.2096
vn 0.7822 -0.5867 -0.2096
vn 0.2096 -0.5867 0.7822
vn -0.7822 -0.5867 0.2096
vn 0.5726 -0.5867 -0.5726
vn -0.2096 -0.5867 -0.7822
vn 0.5726 -0.5867 0.5726
vn -0.0000 -1.0000 -0.0000
vn 0.1603 -0.7851 0.5982
vn 0.5000 -0.0000 0.8660
vn 0.4379 -0.7851 -0.4379
vn -0.1603 -0.7851 -0.5982
vn -0.5000 -0.0000 -0.8660
vn -0.4379 -0.7851 0.4379
vn -1.0000 -0.0000 -0.0000
vn 0.5982 -0.7851 0.1603
vn -0.0000 -0.0000 1.0000
vn -0.5982 -0.7851 -0.1603
vn -0.2527 -0.2156 -0.9432
vn 0.2527 -0.2156 0.9432
vn 0.9432 -0.2156 0.2527
vn -0.9432 -0.2156 -0.2527
vn 0.6905 -0.2156 -0.6905
vn -0.6905 -0.2156 0.6905
vn -0.2588 -0.0000 0.9659
vn 0.2588 -0.0000 0.9659
vn 0.1013 0.9939 -0.0445
vn 0.0445 0.9939 -0.1013
vn -0.0445 0.9939 -0.1013
vn 0.1013 0.9939 0.0445
vn 0.0968 -0.9906 -0.0968
vn -0.0968 -0.9906 -0.0968
vn -0.0968 -0.9906 0.0968
vn 0.1322 0.9824 0.1322
vn -0.9659 -0.0000 -0.2588
vn 0.2588 -0.0000 -0.9659
vn -0.1289 -0.9913 -0.0273
vn -0.0273 -0.9913 0.1289
vn 0.1289 -0.9913 0.0273
vn 0.0273 -0.9913 -0.1289
vn -0.1322 0.9824 -0.1322
vn -0.1322 0.9824 0.1322
vn 0.0445 0.9939 0.1013
vn -0.1013 0.9939 -0.0445
vn 0.1289 -0.9913 -0.0273
vn -0.0445 0.9939 0.1013
vn 0.0968 -0.9906 0.0968
vn -0.2588 -0.0000 -0.9659
vn 0.9659 -0.0000 -0.2588
vn -0.9659 -0.0000 0.2588
vn 0.1322 0.9824 -0.1322
vn -0.1013 0.9939 0.0445
vn -0.0273 -0.9913 -0.1289
vn -0.1289 -0.9913 0.0273
vn 0.0273 -0.9913 0.1289
vn 0.7071 -0.0000 0.7071
vn 0.7071 -0.0000 -0.7071
vn 0.9659 -0.0000 0.2588
vn -0.7071 -0.0000 -0.7071
vn -0.7071 -0.0000 0.7071
vn -0.0000 1.0000 -0.0000
vn 0.0091 -0.0822 -0.9966
vn 0.8676 -0.0822 -0.4904
vn -0.9966 -0.0822 -0.0091
vn -0.0091 -0.0822 0.9966
vn 0.5062 -0.0822 -0.8585
vn 0.9966 -0.0822 0.0091
vn -0.8585 -0.0822 -0.5062
vn -0.5062 -0.0822 0.8585
vn 0.8585 -0.0822 0.5062
vn -0.4904 -0.0822 -0.8676
vn -0.8676 -0.0822 0.4904
vn 0.4904 -0.0822 0.8676
vn 0.4907 0.0008 0.8713
vn 0.0107 0.0008 -0.9999
vn 0.8713 0.0008 -0.4907
vn -1.0000 -0.0000 -0.0091
vn -0.0107 0.0008 0.9999
vn 0.5079 -0.0000 -0.8614
vn 0.9999 0.0008 0.0107
vn -0.8614 -0.0000 -0.5079
vn -0.5079 -0.0000 0.8614
vn 0.8606 0.0008 0.5092
vn -0.4907 0.0008 -0.8713
vn -0.8706 -0.0000 0.4921
vn -0.2588 0.0013 0.9659
vn 0.2600 0.0007 -0.9656
vn -0.7071 0.0013 0.7071
vn -0.2600 0.0007 -0.9656
vn -0.9659 0.0013 0.2588
vn 0.2600 0.0007 0.9656
vn -0.9656 0.0007 -0.2600
vn 0.8660 -0.0000 -0.5000
vn 0.5000 -0.0000 -0.8660
vn 0.9505 -0.1782 -0.2547
vn -0.9505 -0.1782 0.2547
vn 0.6958 -0.1782 0.6958
vn 0.2547 -0.1782 -0.9505
vn -0.6958 -0.1782 -0.6958
vn -0.2547 -0.1782 0.9505
vn 0.2573 -0.1097 -0.9601
vn 0.7028 -0.1097 0.7028
vn 0.9601 -0.1097 -0.2573
vn -0.9601 -0.1097 0.2573
vn -0.2573 -0.1097 0.9601
vn -0.7028 -0.1097 -0.7028
vn -0.0000 -0.0000 -1.0000
vn 0.8660 -0.0000 0.5000
vn -0.8660 -0.0000 -0.5000
vn -0.5000 -0.0000 0.8660
vn 1.0000 -0.0000 -0.0000
vn -0.8660 -0.0000 0.5000
vn 0.5079 -0.0000 0.8614
vn -0.8614 -0.0000 0.5079
vn 0.4907 0.0008 -0.8713
vn 0.8713 0.0008 0.4907
vn -0.4921 -0.0000 0.8706
vn -0.0107 0.0008 -0.9999
vn -0.8713 0.0008 -0.4907
vn 0.9999 0.0008 -0.0107
vn 0.0091 -0.0000 1.0000
vn -0.5079 -0.0000 -0.8614
vn -0.9999 0.0008 0.0107
vn 0.8606 0.0008 -0.5092
vn -0.9966 -0.0822 0.0091
vn -0.4305 -0.7933 -0.4305
vn -0.5062 -0.0822 -0.8585
vn 0.1576 -0.7933 -0.5881
vn 0.0091 -0.0822 0.9966
vn -0.4305 -0.7933 0.4305
vn 0.9966 -0.0822 -0.0091
vn 0.4305 -0.7933 0.4305
vn -0.8676 -0.0822 -0.4904
vn -0.1576 -0.7933 -0.5881
vn -0.0091 -0.0822 -0.9966
vn 0.4305 -0.7933 -0.4305
vn -0.4904 -0.0822 0.8676
vn -0.5881 -0.7933 0.1576
vn 0.8676 -0.0822 0.4904
vn 0.1576 -0.7933 0.5881
vn 0.4904 -0.0822 -0.8676
vn 0.5881 -0.7933 -0.1576
vn -0.8585 -0.0822 0.5062
vn -0.5881 -0.7933 -0.1576
vn 0.5062 -0.0822 0.8585
vn -0.1576 -0.7933 0.5881
vn 0.8585 -0.0822 -0.5062
vn 0.5881 -0.7933 0.1576
vn 0.3603 -0.0098 0.9328
vn 0.9328 -0.0098 0.3603
vn 0.3603 -0.0098 -0.9328
vn -0.9328 -0.0098 0.3603
vn -0.3603 -0.0098 0.9328
vn -0.3603 -0.0098 -0.9328
vn -0.9328 -0.0098 -0.3603
vn 0.9328 -0.0098 -0.3603
vn 0.7069 -0.0254 0.7069
vn 0.7069 -0.0254 -0.7069
vn -0.7069 -0.0254 0.7069
vn -0.7069 -0.0254 -0.7069
vt 0.000000 0.000000
s 0
usemtl MagentaMetal
f 1/1/1 14/1/1 13/1/1
f 1/1/2 10/1/2 17/1/2
f 1/1/3 12/1/3 11/1/3
f 1/1/4 132/1/4 16/1/4
f 1/1/5 130/1/5 14/1/5
f 1/1/6 129/1/6 12/1/6
f 1/1/7 131/1/7 132/1/7
f 1/1/8 15/1/8 130/1/8
f 1/1/9 13/1/9 129/1/9
f 1/1/10 17/1/10 131/1/10
f 1/1/11 11/1/11 10/1/11
f 1/1/12 16/1/12 15/1/12
f 124/1/13 146/1/13 145/1/13 18/1/13
f 15/1/14 5/1/14 121/1/14 130/1/14
f 2/1/15 136/1/15 131/1/15
f 17/1/16 120/1/16 2/1/16 131/1/16
f 11/1/17 123/1/17 9/1/17 10/1/17
f 22/1/18 151/1/18 141/1/18 122/1/18
f 14/1/19 6/1/19 122/1/19 13/1/19
f 26/1/13 144/1/13 143/1/13 25/1/13
f 121/1/20 139/1/20 130/1/20
f 132/1/21 3/1/21 4/1/21 16/1/21
f 7/1/22 142/1/22 152/1/22 23/1/22
f 129/1/23 7/1/23 8/1/23 12/1/23
f 123/1/24 126/1/24 25/1/24 9/1/24
f 5/1/25 19/1/25 20/1/25 121/1/25
f 3/1/26 124/1/26 125/1/26 4/1/26
f 7/1/27 23/1/27 24/1/27 8/1/27
f 120/1/28 26/1/28 18/1/28 2/1/28
f 6/1/29 21/1/29 22/1/29 122/1/29
f 28/1/30 32/1/30 193/1/30 194/1/30
f 186/1/31 32/1/31 28/1/31 185/1/31
f 34/1/32 45/1/32 46/1/32 208/1/32 209/1/32
f 187/1/33 35/1/33 36/1/33 31/1/33 190/1/33
f 33/1/34 42/1/34 43/1/34 200/1/34 201/1/34
f 183/1/35 38/1/35 39/1/35 32/1/35 186/1/35
f 26/1/36 207/1/36 188/1/36 18/1/36
f 24/1/37 199/1/37 204/1/37 126/1/37
f 21/1/38 191/1/38 196/1/38 22/1/38
f 180/1/39 37/1/39 38/1/39 183/1/39
f 29/1/40 33/1/40 201/1/40 202/1/40
f 30/1/41 34/1/41 209/1/41 210/1/41
f 126/1/42 204/1/42 205/1/42 30/1/42 25/1/42
f 22/1/43 196/1/43 197/1/43 29/1/43 23/1/43
f 19/1/44 184/1/44 185/1/44 28/1/44 20/1/44
f 18/1/45 188/1/45 189/1/45 27/1/45 124/1/45
f 200/1/46 43/1/46 44/1/46 203/1/46
f 192/1/47 40/1/47 41/1/47 195/1/47
f 31/1/48 36/1/48 37/1/48 180/1/48 181/1/48
f 203/1/49 44/1/49 45/1/49 34/1/49 206/1/49
f 25/1/50 30/1/50 210/1/50 207/1/50 26/1/50
f 195/1/51 41/1/51 42/1/51 33/1/51 198/1/51
f 125/1/52 179/1/52 184/1/52 19/1/52
f 206/1/53 34/1/53 30/1/53 205/1/53
f 190/1/54 31/1/54 27/1/54 189/1/54
f 198/1/55 33/1/55 29/1/55 197/1/55
f 208/1/56 46/1/56 35/1/56 187/1/56
f 32/1/57 39/1/57 40/1/57 192/1/57 193/1/57
f 23/1/58 29/1/58 202/1/58 199/1/58 24/1/58
f 20/1/59 28/1/59 194/1/59 191/1/59 21/1/59
f 124/1/60 27/1/60 182/1/60 179/1/60 125/1/60
f 37/1/61 49/1/61 50/1/61 38/1/61
f 44/1/53 56/1/53 57/1/53 45/1/53
f 46/1/62 58/1/62 47/1/62 35/1/62
f 41/1/55 53/1/55 54/1/55 42/1/55
f 38/1/31 50/1/31 51/1/31 39/1/31
f 35/1/54 47/1/54 48/1/54 36/1/54
f 42/1/40 54/1/40 55/1/40 43/1/40
f 39/1/30 51/1/30 52/1/30 40/1/30
f 36/1/63 48/1/63 49/1/63 37/1/63
f 43/1/64 55/1/64 56/1/64 44/1/64
f 45/1/41 57/1/41 58/1/41 46/1/41
f 40/1/65 52/1/65 53/1/65 41/1/65
f 52/1/66 64/1/66 65/1/66 53/1/66
f 49/1/66 61/1/66 62/1/66 50/1/66
f 56/1/66 68/1/66 69/1/66 57/1/66
f 58/1/66 70/1/66 59/1/66 47/1/66
f 53/1/66 65/1/66 66/1/66 54/1/66
f 50/1/66 62/1/66 63/1/66 51/1/66
f 47/1/66 59/1/66 60/1/66 48/1/66
f 54/1/66 66/1/66 67/1/66 55/1/66
f 51/1/66 63/1/66 64/1/66 52/1/66
f 48/1/66 60/1/66 61/1/66 49/1/66
f 55/1/66 67/1/66 68/1/66 56/1/66
f 57/1/66 69/1/66 70/1/66 58/1/66
f 69/1/41 81/1/41 82/1/41 70/1/41
f 64/1/65 76/1/65 77/1/65 65/1/65
f 61/1/61 73/1/61 74/1/61 62/1/61
f 68/1/53 80/1/53 81/1/53 69/1/53
f 70/1/62 82/1/62 71/1/62 59/1/62
f 65/1/55 77/1/55 78/1/55 66/1/55
f 62/1/31 74/1/31 75/1/31 63/1/31
f 59/1/54 71/1/54 72/1/54 60/1/54
f 66/1/40 78/1/40 79/1/40 67/1/40
f 63/1/30 75/1/30 76/1/30 64/1/30
f 60/1/63 72/1/63 73/1/63 61/1/63
f 67/1/64 79/1/64 80/1/64 68/1/64
f 80/1/67 165/1/67 92/1/67
f 82/1/68 155/1/68 94/1/68
f 77/1/69 162/1/69 89/1/69
f 74/1/70 159/1/70 86/1/70
f 81/1/71 166/1/71 93/1/71
f 71/1/72 156/1/72 83/1/72
f 78/1/73 163/1/73 90/1/73
f 75/1/74 160/1/74 87/1/74
f 72/1/75 157/1/75 84/1/75
f 79/1/76 164/1/76 91/1/76
f 76/1/77 161/1/77 88/1/77
f 73/1/78 158/1/78 85/1/78
f 158/1/79 170/1/79 102/1/79 85/1/79
f 165/1/80 177/1/80 105/1/80 92/1/80
f 155/1/81 167/1/81 106/1/81 94/1/81
f 162/1/82 174/1/82 97/1/82 89/1/82
f 159/1/83 171/1/83 103/1/83 86/1/83
f 166/1/84 178/1/84 99/1/84 93/1/84
f 156/1/85 168/1/85 100/1/85 83/1/85
f 163/1/86 175/1/86 98/1/86 90/1/86
f 160/1/87 172/1/87 95/1/87 87/1/87
f 157/1/88 169/1/88 101/1/88 84/1/88
f 164/1/89 176/1/89 104/1/89 91/1/89
f 161/1/90 173/1/90 96/1/90 88/1/90
f 101/1/66 102/1/66 170/1/66
f 104/1/66 105/1/66 177/1/66
f 99/1/66 106/1/66 167/1/66
f 96/1/66 97/1/66 174/1/66
f 102/1/66 103/1/66 171/1/66
f 105/1/66 99/1/66 178/1/66
f 106/1/66 100/1/66 168/1/66
f 97/1/66 98/1/66 175/1/66
f 103/1/66 95/1/66 172/1/66
f 100/1/66 101/1/66 169/1/66
f 98/1/66 104/1/66 176/1/66
f 95/1/66 96/1/66 173/1/66
f 95/1/91 111/1/91 112/1/91 96/1/91
f 101/1/63 108/1/63 109/1/63 102/1/63
f 104/1/64 115/1/64 116/1/64 105/1/64
f 99/1/92 117/1/92 118/1/92 106/1/92
f 96/1/93 112/1/93 113/1/93 97/1/93
f 102/1/61 109/1/61 110/1/61 103/1/61
f 105/1/94 116/1/94 117/1/94 99/1/94
f 106/1/62 118/1/62 107/1/62 100/1/62
f 97/1/95 113/1/95 114/1/95 98/1/95
f 103/1/96 110/1/96 111/1/96 95/1/96
f 100/1/54 107/1/54 108/1/54 101/1/54
f 98/1/97 114/1/97 115/1/97 104/1/97
f 111/1/66 119/1/66 112/1/66
f 108/1/66 119/1/66 109/1/66
f 115/1/66 119/1/66 116/1/66
f 117/1/66 119/1/66 118/1/66
f 112/1/66 119/1/66 113/1/66
f 109/1/66 119/1/66 110/1/66
f 116/1/66 119/1/66 117/1/66
f 118/1/66 119/1/66 107/1/66
f 113/1/66 119/1/66 114/1/66
f 110/1/66 119/1/66 111/1/66
f 107/1/66 119/1/66 108/1/66
f 114/1/66 119/1/66 115/1/66
f 15/1/98 138/1/98 5/1/98
f 18/1/15 145/1/15 136/1/15 2/1/15
f 8/1/99 134/1/99 12/1/99
f 131/1/100 136/1/100 133/1/100 132/1/100
f 13/1/101 141/1/101 142/1/101 129/1/101
f 16/1/102 137/1/102 138/1/102 15/1/102
f 10/1/103 135/1/103 128/1/103 17/1/103
f 12/1/104 134/1/104 127/1/104 11/1/104
f 130/1/105 139/1/105 140/1/105 14/1/105
f 135/1/106 143/1/106 144/1/106 128/1/106
f 137/1/107 147/1/107 148/1/107 138/1/107
f 136/1/108 145/1/108 146/1/108 133/1/108
f 141/1/109 151/1/109 152/1/109 142/1/109
f 139/1/110 149/1/110 150/1/110 140/1/110
f 134/1/111 153/1/111 154/1/111 127/1/111
f 20/1/20 149/1/20 139/1/20 121/1/20
f 132/1/112 133/1/112 3/1/112
f 19/1/13 148/1/13 147/1/13 125/1/13
f 24/1/99 153/1/99 134/1/99 8/1/99
f 21/1/13 150/1/13 149/1/13 20/1/13
f 6/1/113 140/1/113 150/1/113 21/1/113
f 23/1/13 152/1/13 151/1/13 22/1/13
f 126/1/13 154/1/13 153/1/13 24/1/13
f 14/1/113 140/1/113 6/1/113
f 120/1/114 128/1/114 144/1/114 26/1/114
f 4/1/115 137/1/115 16/1/115
f 25/1/116 143/1/116 135/1/116 9/1/116
f 11/1/117 127/1/117 123/1/117
f 5/1/98 138/1/98 148/1/98 19/1/98
f 9/1/116 135/1/116 10/1/116
f 125/1/115 147/1/115 137/1/115 4/1/115
f 17/1/114 128/1/114 120/1/114
f 123/1/117 127/1/117 154/1/117 126/1/117
f 122/1/18 141/1/18 13/1/18
f 3/1/112 133/1/112 146/1/112 124/1/112
f 129/1/22 142/1/22 7/1/22
f 87/1/118 95/1/118 173/1/118 161/1/118
f 90/1/119 98/1/119 176/1/119 164/1/119
f 83/1/120 100/1/120 169/1/120 157/1/120
f 86/1/121 103/1/121 172/1/121 160/1/121
f 89/1/122 97/1/122 175/1/122 163/1/122
f 94/1/123 106/1/123 168/1/123 156/1/123
f 92/1/124 105/1/124 178/1/124 166/1/124
f 85/1/125 102/1/125 171/1/125 159/1/125
f 88/1/126 96/1/126 174/1/126 162/1/126
f 93/1/127 99/1/127 167/1/127 155/1/127
f 91/1/128 104/1/128 177/1/128 165/1/128
f 84/1/129 101/1/129 170/1/129 158/1/129
f 91/1/130 165/1/130 79/1/130
f 79/1/131 165/1/131 80/1/131
f 93/1/132 155/1/132 81/1/132
f 81/1/133 155/1/133 82/1/133
f 88/1/134 162/1/134 76/1/134
f 76/1/135 162/1/135 77/1/135
f 85/1/136 159/1/136 73/1/136
f 73/1/137 159/1/137 74/1/137
f 92/1/138 166/1/138 80/1/138
f 80/1/139 166/1/139 81/1/139
f 94/1/140 156/1/140 82/1/140
f 82/1/141 156/1/141 71/1/141
f 89/1/142 163/1/142 77/1/142
f 77/1/143 163/1/143 78/1/143
f 86/1/144 160/1/144 74/1/144
f 74/1/145 160/1/145 75/1/145
f 83/1/146 157/1/146 71/1/146
f 71/1/147 157/1/147 72/1/147
f 90/1/148 164/1/148 78/1/148
f 78/1/149 164/1/149 79/1/149
f 87/1/150 161/1/150 75/1/150
f 75/1/151 161/1/151 76/1/151
f 84/1/152 158/1/152 72/1/152
f 72/1/153 158/1/153 73/1/153
f 179/1/154 182/1/154 181/1/154 180/1/154
f 183/1/155 186/1/155 185/1/155 184/1/155
f 187/1/156 190/1/156 189/1/156 188/1/156
f 191/1/157 194/1/157 193/1/157 192/1/157
f 195/1/158 198/1/158 197/1/158 196/1/158
f 199/1/159 202/1/159 201/1/159 200/1/159
f 203/1/160 206/1/160 205/1/160 204/1/160
f 207/1/161 210/1/161 209/1/161 208/1/161
f 179/1/162 180/1/162 183/1/162 184/1/162
f 207/1/163 208/1/163 187/1/163 188/1/163
f 191/1/164 192/1/164 195/1/164 196/1/164
f 199/1/165 200/1/165 203/1/165 204/1/165
f 27/1/63 31/1/63 181/1/63 182/1/63
