# Blender 4.2.1 LTS
# www.blender.org
mtllib 1Ratchet.mtl
o 1Ratchet
v 0.000000 1.302458 -0.600000
v -0.352671 1.302458 -0.485410
v -0.570634 1.302458 -0.185410
v -0.627697 1.302458 0.165118
v -0.387938 1.302458 0.495118
v 0.000000 1.302458 0.621167
v 0.387938 1.302458 0.495118
v 0.627697 1.302458 0.165118
v 0.570634 1.302458 -0.185410
v 0.352671 1.302458 -0.485410
v 0.000000 1.302458 0.000000
v 0.000000 1.683487 -0.900000
v -0.529007 1.683487 -0.728115
v -0.855951 1.683487 -0.278115
v -0.855951 1.683487 0.278115
v -0.529007 1.683487 0.728115
v 0.000000 1.683487 0.900000
v 0.529007 1.683487 0.728115
v 0.855951 1.683487 0.278115
v 0.855951 1.683487 -0.278115
v 0.529007 1.683487 -0.728115
v 0.000000 1.983487 -1.530000
v -0.899311 1.983487 -1.237796
v -1.455117 1.983487 -0.472796
v -1.455117 1.983487 0.472796
v -0.899311 1.983487 1.237796
v 0.000000 1.983487 1.530000
v 0.899311 1.983487 1.237796
v 1.455117 1.983487 0.472796
v 1.455117 1.983487 -0.472796
v 0.899311 1.983487 -1.237796
v 0.000000 2.183487 -2.295000
v -1.348967 2.183487 -1.856694
v -2.182675 2.183487 -0.709194
v -2.182675 2.183487 0.709194
v -1.348967 2.183487 1.856694
v 0.000000 2.183487 2.295000
v 1.348967 2.183487 1.856694
v 2.182675 2.183487 0.709194
v 2.182675 2.183487 -0.709194
v 1.348967 2.183487 -1.856694
v 0.000000 2.783487 -2.295000
v -1.348967 2.783487 -1.856694
v -2.182675 2.783487 -0.709194
v -2.182675 2.783487 0.709194
v -1.348967 2.783487 1.856694
v 0.000000 2.783487 2.295000
v 1.348967 2.783487 1.856694
v 2.182675 2.783487 0.709194
v 2.182675 2.783487 -0.709194
v 1.348967 2.783487 -1.856694
v 0.000000 2.783488 0.000000
vn -0.0000 -1.0000 -0.0000
vn -0.8288 -0.5571 -0.0522
vn 0.2474 -0.5994 -0.7613
vn 0.6755 -0.5502 0.4908
vn -0.6755 -0.5502 0.4908
vn -0.2474 -0.5994 -0.7613
vn 0.8288 -0.5571 -0.0522
vn -0.2536 -0.5712 0.7806
vn -0.6476 -0.5994 -0.4705
vn 0.6476 -0.5994 -0.4705
vn 0.2536 -0.5712 0.7806
vn 0.1384 -0.8942 -0.4258
vn 0.3622 -0.8942 0.2632
vn -0.3622 -0.8942 0.2632
vn -0.1384 -0.8942 -0.4258
vn 0.4477 -0.8942 -0.0000
vn -0.1384 -0.8942 0.4258
vn -0.3622 -0.8942 -0.2632
vn 0.3622 -0.8942 -0.2632
vn 0.1384 -0.8942 0.4258
vn -0.4477 -0.8942 -0.0000
vn 0.0819 -0.9642 0.2521
vn -0.2651 -0.9642 -0.0000
vn 0.0819 -0.9642 -0.2521
vn 0.2144 -0.9642 0.1558
vn -0.2144 -0.9642 0.1558
vn -0.0819 -0.9642 -0.2521
vn 0.2651 -0.9642 -0.0000
vn -0.0819 -0.9642 0.2521
vn -0.2144 -0.9642 -0.1558
vn 0.2144 -0.9642 -0.1558
vn -1.0000 -0.0000 -0.0000
vn 0.3090 -0.0000 -0.9511
vn 0.8090 -0.0000 0.5878
vn -0.8090 -0.0000 0.5878
vn -0.3090 -0.0000 -0.9511
vn 1.0000 -0.0000 -0.0000
vn -0.3090 -0.0000 0.9511
vn -0.8090 -0.0000 -0.5878
vn 0.8090 -0.0000 -0.5878
vn 0.3090 -0.0000 0.9511
vn -0.0000 1.0000 -0.0000
vt 0.000000 0.000000
s 0
usemtl Blue
f 6/1/1 11/1/1 7/1/1
f 3/1/1 11/1/1 4/1/1
f 10/1/1 11/1/1 1/1/1
f 7/1/1 11/1/1 8/1/1
f 4/1/1 11/1/1 5/1/1
f 1/1/1 11/1/1 2/1/1
f 8/1/1 11/1/1 9/1/1
f 5/1/1 11/1/1 6/1/1
f 2/1/1 11/1/1 3/1/1
f 9/1/1 11/1/1 10/1/1
f 4/1/2 15/1/2 14/1/2 3/1/2
f 1/1/3 12/1/3 21/1/3 10/1/3
f 8/1/4 19/1/4 18/1/4 7/1/4
f 5/1/5 16/1/5 15/1/5 4/1/5
f 2/1/6 13/1/6 12/1/6 1/1/6
f 9/1/7 20/1/7 19/1/7 8/1/7
f 6/1/8 17/1/8 16/1/8 5/1/8
f 3/1/9 14/1/9 13/1/9 2/1/9
f 10/1/10 21/1/10 20/1/10 9/1/10
f 7/1/11 18/1/11 17/1/11 6/1/11
f 12/1/12 22/1/12 31/1/12 21/1/12
f 19/1/13 29/1/13 28/1/13 18/1/13
f 16/1/14 26/1/14 25/1/14 15/1/14
f 13/1/15 23/1/15 22/1/15 12/1/15
f 20/1/16 30/1/16 29/1/16 19/1/16
f 17/1/17 27/1/17 26/1/17 16/1/17
f 14/1/18 24/1/18 23/1/18 13/1/18
f 21/1/19 31/1/19 30/1/19 20/1/19
f 18/1/20 28/1/20 27/1/20 17/1/20
f 15/1/21 25/1/21 24/1/21 14/1/21
f 28/1/22 38/1/22 37/1/22 27/1/22
f 25/1/23 35/1/23 34/1/23 24/1/23
f 22/1/24 32/1/24 41/1/24 31/1/24
f 29/1/25 39/1/25 38/1/25 28/1/25
f 26/1/26 36/1/26 35/1/26 25/1/26
f 23/1/27 33/1/27 32/1/27 22/1/27
f 30/1/28 40/1/28 39/1/28 29/1/28
f 27/1/29 37/1/29 36/1/29 26/1/29
f 24/1/30 34/1/30 33/1/30 23/1/30
f 31/1/31 41/1/31 40/1/31 30/1/31
f 35/1/32 45/1/32 44/1/32 34/1/32
f 32/1/33 42/1/33 51/1/33 41/1/33
f 39/1/34 49/1/34 48/1/34 38/1/34
f 36/1/35 46/1/35 45/1/35 35/1/35
f 33/1/36 43/1/36 42/1/36 32/1/36
f 40/1/37 50/1/37 49/1/37 39/1/37
f 37/1/38 47/1/38 46/1/38 36/1/38
f 34/1/39 44/1/39 43/1/39 33/1/39
f 41/1/40 51/1/40 50/1/40 40/1/40
f 38/1/41 48/1/41 47/1/41 37/1/41
f 49/1/42 52/1/42 48/1/42
f 46/1/42 52/1/42 45/1/42
f 43/1/42 52/1/42 42/1/42
f 50/1/42 52/1/42 49/1/42
f 47/1/42 52/1/42 46/1/42
f 44/1/42 52/1/42 43/1/42
f 51/1/42 52/1/42 50/1/42
f 48/1/42 52/1/42 47/1/42
f 45/1/42 52/1/42 44/1/42
f 42/1/42 52/1/42 51/1/42
