# Blender 4.2.1 LTS
# www.blender.org
mtllib 2Ratchet.mtl
o 2Ratchet
v -0.353553 1.300000 -0.353553
v -0.482963 1.300000 -0.129410
v -0.482963 1.300000 0.129409
v -0.353553 1.300000 0.353553
v -0.129410 1.300000 0.482963
v 0.129409 1.300000 0.482963
v 0.353553 1.300000 0.353553
v 0.482963 1.300000 0.129410
v 0.482963 1.300000 -0.129409
v 0.353553 1.300000 -0.353553
v 0.129410 1.300000 -0.482963
v -0.129409 1.300000 -0.482963
v -1.484924 1.462514 -1.484924
v -1.690370 1.462514 -0.452933
v -1.690370 1.462514 0.452933
v -1.484924 1.462514 1.484924
v -0.452933 1.462514 1.690370
v 0.452933 1.462514 1.690370
v 1.484924 1.462514 1.484924
v 1.690370 1.462514 0.452933
v 1.690370 1.462514 -0.452933
v 1.484924 1.462514 -1.484924
v 0.452933 1.462514 -1.690370
v -0.452933 1.462514 -1.690370
v -1.615598 2.138999 -1.615598
v -1.839123 2.138999 -0.492792
v -1.839123 2.138999 0.492791
v -1.615598 2.138999 1.615598
v -0.492792 2.138999 1.839123
v 0.492791 2.138999 1.839123
v 1.615598 2.138999 1.615598
v 1.839123 2.138999 0.492792
v 1.839123 2.138999 -0.492791
v 1.615598 2.138999 -1.615598
v 0.492792 2.138999 -1.839123
v -0.492791 2.138999 -1.839123
v -0.942432 2.454914 -0.942432
v -0.386216 2.703021 -0.103486
v -0.386216 2.703021 0.103486
v -0.942432 2.454914 0.942432
v -0.103486 2.703021 0.386216
v 0.103486 2.703021 0.386216
v 0.942432 2.454914 0.942432
v 0.386216 2.703021 0.103486
v 0.386216 2.703021 -0.103486
v 0.942432 2.454914 -0.942432
v 0.103486 2.703021 -0.386216
v -0.103486 2.703021 -0.386216
v -0.000000 2.703021 0.000000
v -1.014222 1.462514 -0.000000
v -0.000000 1.462514 1.014222
v 1.014222 1.462514 0.000000
v 0.000000 1.462514 -1.014222
v -1.103474 2.138999 -0.000000
v -0.000000 2.138999 1.103474
v 1.103474 2.138999 0.000000
v 0.000000 2.138999 -1.103474
v -0.000000 1.167571 -0.000000
vn -0.3106 -0.9275 -0.2081
vn -0.1183 -0.9925 -0.0315
vn 0.2081 -0.9275 -0.3106
vn 0.3106 -0.9275 0.2081
vn -0.0315 -0.9925 -0.1183
vn -0.2081 -0.9275 0.3106
vn 0.1183 -0.9925 -0.0315
vn 0.0315 -0.9925 0.1183
vn -0.1183 -0.9925 0.0315
vn 0.0315 -0.9925 -0.1183
vn 0.1183 -0.9925 0.0315
vn -0.0315 -0.9925 0.1183
vn -0.9564 -0.2215 0.1904
vn 0.1904 -0.2215 -0.9564
vn 0.9564 -0.2215 0.1904
vn -0.1904 -0.2215 0.9564
vn -0.8286 -0.0732 -0.5550
vn -0.9564 -0.2215 -0.1904
vn 0.5550 -0.0732 -0.8286
vn 0.8286 -0.0732 0.5550
vn -0.1904 -0.2215 -0.9564
vn -0.5550 -0.0732 0.8286
vn 0.9564 -0.2215 -0.1904
vn 0.1904 -0.2215 0.9564
vn -0.3572 0.9323 -0.0573
vn 0.6181 0.7861 -0.0000
vn -0.0000 0.7861 0.6181
vn -0.0573 0.9323 -0.3572
vn -0.6181 0.7861 -0.0000
vn 0.3572 0.9323 -0.0573
vn 0.0573 0.9323 0.3572
vn -0.3572 0.9323 0.0573
vn 0.0573 0.9323 -0.3572
vn 0.3572 0.9323 0.0573
vn -0.0573 0.9323 0.3572
vn -0.0000 0.7861 -0.6181
vn -0.0000 1.0000 -0.0000
vn 0.0903 0.9372 -0.3370
vn -0.3370 0.9372 0.0903
vn -0.0903 0.9372 -0.3370
vn 0.3370 0.9372 -0.0903
vn 0.0903 0.9372 0.3370
vn 0.3370 0.9372 0.0903
vn -0.0903 0.9372 0.3370
vn -0.3370 0.9372 -0.0903
vn -0.5550 -0.0732 -0.8286
vn -0.8286 -0.0732 0.5550
vn 0.5550 -0.0732 0.8286
vn 0.8286 -0.0732 -0.5550
vn 0.2081 -0.9275 0.3106
vn 0.2925 -0.9563 -0.0000
vn 0.4219 0.6521 0.6299
vn 0.4219 0.6521 -0.6299
vn -0.6299 0.6521 0.4219
vn 0.6299 0.6521 0.4219
vn -0.4219 0.6521 -0.6299
vn -0.4219 0.6521 0.6299
vn -0.3106 -0.9275 0.2081
vn -0.0000 -0.9563 0.2925
vn -0.2081 -0.9275 -0.3106
vn -0.2925 -0.9563 -0.0000
vn 0.3106 -0.9275 -0.2081
vn -0.0000 -0.9563 -0.2925
vn 0.6299 0.6521 -0.4219
vn -0.6299 0.6521 -0.4219
vn -0.2644 -0.9644 -0.0000
vn 0.2290 -0.9644 -0.1322
vn 0.1322 -0.9644 0.2290
vn -0.2290 -0.9644 0.1322
vn 0.1322 -0.9644 -0.2290
vn 0.2290 -0.9644 0.1322
vn -0.1322 -0.9644 0.2290
vn -0.0000 -0.9644 -0.2644
vn -0.2290 -0.9644 -0.1322
vn 0.2644 -0.9644 -0.0000
vn -0.0000 -0.9644 0.2644
vn -0.1322 -0.9644 -0.2290
vt 0.000000 0.000000
s 0
usemtl Purple
f 11/1/1 53/1/1 23/1/1
f 2/1/2 14/1/2 13/1/2 1/1/2
f 8/1/3 52/1/3 20/1/3
f 5/1/4 51/1/4 17/1/4
f 1/1/5 13/1/5 24/1/5 12/1/5
f 2/1/6 50/1/6 14/1/6
f 10/1/7 22/1/7 21/1/7 9/1/7
f 7/1/8 19/1/8 18/1/8 6/1/8
f 4/1/9 16/1/9 15/1/9 3/1/9
f 11/1/10 23/1/10 22/1/10 10/1/10
f 8/1/11 20/1/11 19/1/11 7/1/11
f 5/1/12 17/1/12 16/1/12 4/1/12
f 16/1/13 28/1/13 27/1/13 15/1/13
f 23/1/14 35/1/14 34/1/14 22/1/14
f 20/1/15 32/1/15 31/1/15 19/1/15
f 17/1/16 29/1/16 28/1/16 16/1/16
f 53/1/17 57/1/17 35/1/17 23/1/17
f 14/1/18 26/1/18 25/1/18 13/1/18
f 52/1/19 56/1/19 32/1/19 20/1/19
f 51/1/20 55/1/20 29/1/20 17/1/20
f 13/1/21 25/1/21 36/1/21 24/1/21
f 50/1/22 54/1/22 26/1/22 14/1/22
f 22/1/23 34/1/23 33/1/23 21/1/23
f 19/1/24 31/1/24 30/1/24 18/1/24
f 26/1/25 38/1/25 37/1/25 25/1/25
f 56/1/26 45/1/26 44/1/26
f 55/1/27 42/1/27 41/1/27
f 25/1/28 37/1/28 48/1/28 36/1/28
f 54/1/29 39/1/29 38/1/29
f 34/1/30 46/1/30 45/1/30 33/1/30
f 31/1/31 43/1/31 42/1/31 30/1/31
f 28/1/32 40/1/32 39/1/32 27/1/32
f 35/1/33 47/1/33 46/1/33 34/1/33
f 32/1/34 44/1/34 43/1/34 31/1/34
f 29/1/35 41/1/35 40/1/35 28/1/35
f 57/1/36 48/1/36 47/1/36
f 48/1/37 49/1/37 47/1/37
f 38/1/38 49/1/38 37/1/38
f 45/1/37 49/1/37 44/1/37
f 42/1/37 49/1/37 41/1/37
f 37/1/39 49/1/39 48/1/39
f 39/1/37 49/1/37 38/1/37
f 46/1/40 49/1/40 45/1/40
f 43/1/41 49/1/41 42/1/41
f 40/1/42 49/1/42 39/1/42
f 47/1/43 49/1/43 46/1/43
f 44/1/44 49/1/44 43/1/44
f 41/1/45 49/1/45 40/1/45
f 15/1/46 27/1/46 54/1/46 50/1/46
f 18/1/47 30/1/47 55/1/47 51/1/47
f 21/1/48 33/1/48 56/1/48 52/1/48
f 24/1/49 36/1/49 57/1/49 53/1/49
f 21/1/50 52/1/50 9/1/50
f 9/1/51 52/1/51 8/1/51
f 45/1/52 56/1/52 33/1/52
f 56/1/53 44/1/53 32/1/53
f 42/1/54 55/1/54 30/1/54
f 55/1/55 41/1/55 29/1/55
f 39/1/56 54/1/56 27/1/56
f 54/1/57 38/1/57 26/1/57
f 18/1/58 51/1/58 6/1/58
f 6/1/59 51/1/59 5/1/59
f 15/1/60 50/1/60 3/1/60
f 3/1/61 50/1/61 2/1/61
f 24/1/62 53/1/62 12/1/62
f 12/1/63 53/1/63 11/1/63
f 48/1/64 57/1/64 36/1/64
f 57/1/65 47/1/65 35/1/65
f 3/1/66 2/1/66 58/1/66
f 10/1/67 9/1/67 58/1/67
f 7/1/68 6/1/68 58/1/68
f 4/1/69 3/1/69 58/1/69
f 11/1/70 10/1/70 58/1/70
f 8/1/71 7/1/71 58/1/71
f 5/1/72 4/1/72 58/1/72
f 12/1/73 11/1/73 58/1/73
f 2/1/74 1/1/74 58/1/74
f 9/1/75 8/1/75 58/1/75
f 6/1/76 5/1/76 58/1/76
f 1/1/77 12/1/77 58/1/77
