# Blender 4.2.1 LTS
# www.blender.org
mtllib 6Ratchet.mtl
o 6Ratchet
v 0.561472 1.394165 0.000000
v 0.000000 2.430841 -0.849254
v -0.424627 2.430841 -0.735475
v -0.735475 2.430841 -0.424627
v -0.849254 2.430841 0.000000
v -0.735475 2.430841 0.424627
v -0.424627 2.430841 0.735475
v 0.000000 2.430841 0.849254
v 0.424627 2.430841 0.735475
v 0.735475 2.430841 0.424627
v 0.849254 2.430841 0.000000
v 0.735475 2.430841 -0.424627
v 0.424627 2.430841 -0.735475
v 0.000000 2.607502 -0.849254
v -0.424627 2.607502 -0.735475
v -0.735475 2.607502 -0.424627
v -0.849254 2.607502 0.000000
v -0.735475 2.607502 0.424627
v -0.424627 2.607502 0.735475
v 0.000000 2.607502 0.849254
v 0.424627 2.607502 0.735475
v 0.735475 2.607502 0.424627
v 0.849254 2.607502 0.000000
v 0.735475 2.607502 -0.424627
v 0.424627 2.607502 -0.735475
v 0.724627 1.711321 0.000000
v 0.627545 1.711321 -0.362313
v 0.000000 1.711321 0.724627
v 0.362313 1.711321 0.627545
v -0.724627 1.711321 0.000000
v -0.627545 1.711321 0.362313
v 0.362313 1.711321 -0.627545
v 0.000000 1.711321 -0.724627
v -0.362313 1.711321 -0.627545
v 0.627545 1.711321 0.362313
v -0.362313 1.711321 0.627545
v -0.627545 1.711321 -0.362313
v 0.721866 2.194623 0.000000
v 0.000000 2.194623 0.721866
v -0.721866 2.194623 0.000000
v 0.000000 2.194623 -0.721866
v 1.234598 2.108729 -1.052792
v 1.052792 2.108729 1.234598
v -1.234598 2.108729 1.052792
v 1.052792 2.108729 -1.234598
v -1.052792 2.108729 -1.234598
v 1.234598 2.108729 1.052792
v -1.052792 2.108729 1.234598
v -1.234598 2.108729 -1.052792
v 1.203036 1.930895 -1.034570
v 1.034570 1.930895 1.203036
v -1.203036 1.930895 1.034570
v 1.034569 1.930895 -1.203036
v -1.034570 1.930895 -1.203036
v 1.203036 1.930895 1.034569
v -1.034569 1.930895 1.203036
v -1.203036 1.930895 -1.034569
v 0.668899 1.845001 0.000000
v 0.000000 1.845001 0.668899
v -0.668899 1.845001 0.000000
v 0.000000 1.845001 -0.668899
v -0.000000 2.607502 -0.000000
v 0.486249 1.394165 -0.280736
v 0.000000 1.394165 0.561472
v 0.280736 1.394165 0.486249
v -0.561472 1.394165 0.000000
v -0.486249 1.394165 0.280736
v 0.280736 1.394165 -0.486249
v 0.000000 1.394165 -0.561472
v -0.280736 1.394165 -0.486249
v 0.486249 1.394165 0.280736
v -0.280736 1.394165 0.486249
v -0.486249 1.394165 -0.280736
v 0.000000 1.215147 0.000000
vn 0.9086 0.3519 0.2249
vn -0.2249 0.3519 0.9086
vn -0.9086 0.3519 -0.2249
vn 0.2649 0.9272 -0.2649
vn 0.2249 0.3519 -0.9086
vn 0.2649 0.9272 0.2649
vn -0.2649 0.9272 0.2649
vn -0.2249 0.3519 -0.9086
vn -0.2649 0.9272 -0.2649
vn 0.9086 0.3519 -0.2249
vn 0.2249 0.3519 0.9086
vn -0.9086 0.3519 0.2249
vn -0.7071 -0.0000 0.7071
vn 0.2588 -0.0000 -0.9659
vn -0.7071 -0.0000 -0.7071
vn 0.9659 -0.0000 0.2588
vn -0.2588 -0.0000 0.9659
vn -0.9659 -0.0000 -0.2588
vn 0.9659 -0.0000 -0.2588
vn 0.2588 -0.0000 0.9659
vn -0.9659 -0.0000 0.2588
vn 0.7071 -0.0000 -0.7071
vn -0.2588 -0.0000 -0.9659
vn 0.7071 -0.0000 0.7071
vn -0.6332 -0.4450 0.6332
vn 0.8650 -0.4450 0.2318
vn -0.8650 -0.4450 0.2318
vn 0.6332 -0.4450 0.6332
vn -0.2318 -0.4450 0.8650
vn -0.6332 -0.4450 -0.6332
vn -0.8650 -0.4450 -0.2318
vn 0.6332 -0.4450 -0.6332
vn 0.2318 -0.4450 -0.8650
vn 0.2318 -0.4450 0.8650
vn -0.2318 -0.4450 -0.8650
vn 0.8650 -0.4450 -0.2318
vn -0.8867 -0.1267 0.4447
vn 0.4447 -0.1267 0.8867
vn 0.8867 -0.1267 -0.4447
vn -0.6936 -0.1942 -0.6936
vn -0.4447 -0.1267 -0.8867
vn -0.6936 -0.1942 0.6936
vn 0.6936 -0.1942 0.6936
vn 0.4447 -0.1267 -0.8867
vn 0.6936 -0.1942 -0.6936
vn -0.8867 -0.1267 -0.4447
vn -0.4447 -0.1267 0.8867
vn 0.8867 -0.1267 0.4447
vn 0.6988 -0.6933 0.1760
vn -0.1760 -0.6933 0.6988
vn -0.6988 -0.6933 -0.1760
vn 0.1708 -0.9704 -0.1708
vn 0.1760 -0.6933 -0.6988
vn 0.1708 -0.9704 0.1708
vn -0.1708 -0.9704 0.1708
vn -0.1760 -0.6933 -0.6988
vn -0.1708 -0.9704 -0.1708
vn 0.6988 -0.6933 -0.1760
vn 0.1760 -0.6933 0.6988
vn -0.6988 -0.6933 0.1760
vn -0.0000 1.0000 -0.0000
vn -0.3028 -0.9496 0.0811
vn 0.3028 -0.9496 0.0811
vn 0.3028 -0.9496 -0.0811
vn -0.2216 -0.9496 0.2216
vn 0.2216 -0.9496 -0.2216
vn -0.0811 -0.9496 0.3028
vn 0.0811 -0.9496 -0.3028
vn -0.0811 -0.9496 -0.3028
vn -0.3028 -0.9496 -0.0811
vn 0.0811 -0.9496 0.3028
vn -0.2216 -0.9496 -0.2216
vn 0.2216 -0.9496 0.2216
vt 0.000000 0.000000
s 0
usemtl MagentaMetal
f 42/1/1 12/1/1 11/1/1 38/1/1
f 43/1/2 9/1/2 8/1/2 39/1/2
f 44/1/3 6/1/3 5/1/3 40/1/3
f 45/1/4 13/1/4 12/1/4 42/1/4
f 46/1/5 3/1/5 2/1/5 41/1/5
f 47/1/6 10/1/6 9/1/6 43/1/6
f 48/1/7 7/1/7 6/1/7 44/1/7
f 41/1/8 2/1/8 13/1/8 45/1/8
f 49/1/9 4/1/9 3/1/9 46/1/9
f 38/1/10 11/1/10 10/1/10 47/1/10
f 39/1/11 8/1/11 7/1/11 48/1/11
f 40/1/12 5/1/12 4/1/12 49/1/12
f 7/1/13 19/1/13 18/1/13 6/1/13
f 2/1/14 14/1/14 25/1/14 13/1/14
f 4/1/15 16/1/15 15/1/15 3/1/15
f 11/1/16 23/1/16 22/1/16 10/1/16
f 8/1/17 20/1/17 19/1/17 7/1/17
f 5/1/18 17/1/18 16/1/18 4/1/18
f 12/1/19 24/1/19 23/1/19 11/1/19
f 9/1/20 21/1/20 20/1/20 8/1/20
f 6/1/21 18/1/21 17/1/21 5/1/21
f 13/1/22 25/1/22 24/1/22 12/1/22
f 3/1/23 15/1/23 14/1/23 2/1/23
f 10/1/24 22/1/24 21/1/24 9/1/24
f 31/1/25 67/1/25 72/1/25 36/1/25
f 35/1/26 71/1/26 1/1/26 26/1/26
f 30/1/27 66/1/27 67/1/27 31/1/27
f 29/1/28 65/1/28 71/1/28 35/1/28
f 36/1/29 72/1/29 64/1/29 28/1/29
f 34/1/30 70/1/30 73/1/30 37/1/30
f 37/1/31 73/1/31 66/1/31 30/1/31
f 27/1/32 63/1/32 68/1/32 32/1/32
f 32/1/33 68/1/33 69/1/33 33/1/33
f 28/1/34 64/1/34 65/1/34 29/1/34
f 33/1/35 69/1/35 70/1/35 34/1/35
f 26/1/36 1/1/36 63/1/36 27/1/36
f 60/1/37 40/1/37 49/1/37 57/1/37
f 59/1/38 39/1/38 48/1/38 56/1/38
f 58/1/39 38/1/39 47/1/39 55/1/39
f 57/1/40 49/1/40 46/1/40 54/1/40
f 61/1/41 41/1/41 45/1/41 53/1/41
f 56/1/42 48/1/42 44/1/42 52/1/42
f 55/1/43 47/1/43 43/1/43 51/1/43
f 54/1/44 46/1/44 41/1/44 61/1/44
f 53/1/45 45/1/45 42/1/45 50/1/45
f 52/1/46 44/1/46 40/1/46 60/1/46
f 51/1/47 43/1/47 39/1/47 59/1/47
f 50/1/48 42/1/48 38/1/48 58/1/48
f 27/1/49 50/1/49 58/1/49 26/1/49
f 29/1/50 51/1/50 59/1/50 28/1/50
f 31/1/51 52/1/51 60/1/51 30/1/51
f 32/1/52 53/1/52 50/1/52 27/1/52
f 34/1/53 54/1/53 61/1/53 33/1/53
f 35/1/54 55/1/54 51/1/54 29/1/54
f 36/1/55 56/1/55 52/1/55 31/1/55
f 33/1/56 61/1/56 53/1/56 32/1/56
f 37/1/57 57/1/57 54/1/57 34/1/57
f 26/1/58 58/1/58 55/1/58 35/1/58
f 28/1/59 59/1/59 56/1/59 36/1/59
f 30/1/60 60/1/60 57/1/60 37/1/60
f 24/1/61 62/1/61 23/1/61
f 21/1/61 62/1/61 20/1/61
f 18/1/61 62/1/61 17/1/61
f 25/1/61 62/1/61 24/1/61
f 15/1/61 62/1/61 14/1/61
f 22/1/61 62/1/61 21/1/61
f 19/1/61 62/1/61 18/1/61
f 14/1/61 62/1/61 25/1/61
f 16/1/61 62/1/61 15/1/61
f 23/1/61 62/1/61 22/1/61
f 20/1/61 62/1/61 19/1/61
f 17/1/61 62/1/61 16/1/61
f 66/1/62 74/1/62 67/1/62
f 71/1/63 74/1/63 1/1/63
f 1/1/64 74/1/64 63/1/64
f 67/1/65 74/1/65 72/1/65
f 63/1/66 74/1/66 68/1/66
f 72/1/67 74/1/67 64/1/67
f 68/1/68 74/1/68 69/1/68
f 69/1/69 74/1/69 70/1/69
f 73/1/70 74/1/70 66/1/70
f 64/1/71 74/1/71 65/1/71
f 70/1/72 74/1/72 73/1/72
f 65/1/73 74/1/73 71/1/73
